<svg width="58" height="32" viewBox="0 0 58 32" fill="none" xmlns="http://www.w3.org/2000/svg">
<g clip-path="url(#clip0)">
<path d="M52.1893 28.3846C48.964 31.0376 44.8082 32.3173 40.6318 31.9436C36.4554 31.5699 32.5988 29.5733 29.9064 26.3908C31.2885 24.5398 32.2858 22.4356 32.8403 20.2002C33.6291 21.9746 34.9212 23.4843 36.5599 24.5461C38.1985 25.6078 40.1132 26.1759 42.0717 26.1815C44.4155 26.1826 46.6856 25.3701 48.4867 23.8853L52.1893 28.3846Z" fill="#FF0000"/>
<path d="M58 16C58.0002 16.9739 57.9126 17.9458 57.7382 18.9042H33.8104C33.4882 17.9819 33.3247 17.0125 33.327 16.0365C33.3254 15.0337 33.4968 14.038 33.8339 13.0924H51.6958C51.1208 11.1239 49.9469 9.37869 48.334 8.09426C46.7211 6.80984 44.7475 6.04862 42.682 5.91425C40.6164 5.77987 38.5591 6.27886 36.7903 7.34329C35.0215 8.40771 33.627 9.98587 32.7966 11.8629C32.617 12.2626 32.4634 12.6733 32.3367 13.0924C32.1324 13.7602 31.9996 14.4474 31.9406 15.1427C31.9138 15.4384 31.9003 15.7341 31.9003 16.0365C31.9003 16.3389 31.9003 16.6147 31.9373 16.8972C31.7717 19.9081 30.7538 22.8122 29 25.2777C28.7315 25.6565 28.4495 26.0187 28.1474 26.3709C26.6585 28.1324 24.7976 29.5493 22.6958 30.5218C20.5939 31.4944 18.3022 31.9989 15.9821 32C7.15685 32 0 24.8357 0 16C0 7.16426 7.15685 -1.83068e-05 15.9821 -1.83068e-05C18.3019 0.000610436 20.5935 0.50466 22.6953 1.47664C24.7971 2.44862 26.6582 3.86489 28.1474 5.62573C26.7376 7.50701 25.727 9.65127 25.1765 11.9294C24.3635 10.0296 22.975 8.42642 21.2026 7.34084C19.4302 6.25526 17.3612 5.7408 15.2809 5.86841C13.2006 5.99602 11.2116 6.75941 9.58817 8.0533C7.96472 9.34719 6.78682 11.1078 6.21692 13.0924C5.95597 13.9625 5.81372 14.8633 5.79396 15.7707V16.2293C5.81522 17.13 5.95746 18.024 6.21692 18.8876C6.83104 20.9615 8.10742 22.7826 9.85485 24.0781C11.6023 25.3736 13.7267 26.0738 15.9099 26.0738C18.0931 26.0738 20.2175 25.3736 21.9649 24.0781C23.7124 22.7826 24.9887 20.9615 25.6028 18.8876C25.8846 17.9448 26.027 16.9666 26.0258 15.9834C26.0239 12.6602 27.0591 9.41757 28.9899 6.69905C29.2585 6.32355 29.5405 5.96135 29.8426 5.60912C31.3344 3.85002 33.1978 2.43612 35.3014 1.467C37.405 0.497883 39.6977 -0.00288171 42.0179 -1.83068e-05C45.7718 0.0162727 49.401 1.33545 52.2735 3.72777C55.146 6.1201 57.0798 9.43401 57.7382 13.0924C57.9124 14.052 58.0001 15.025 58 16Z" fill="black"/>
</g>
<defs>
<clipPath id="clip0">
<rect width="58" height="32" fill="white"/>
</clipPath>
</defs>
</svg>
