<svg width="28" height="28" viewBox="0 0 28 28" fill="none" xmlns="http://www.w3.org/2000/svg">
<g filter="url(#filter0_d)">
<path d="M9.04996 12.121L6.92996 14.243L9.75796 17.071L21.071 5.75701L18.243 2.93001L16.12 5.05001L17.535 6.46401L16.12 7.88001L14.706 6.46501L13.292 7.88001L14.706 9.29401L13.292 10.708L11.878 9.29401L10.463 10.708L11.878 12.122L10.463 13.537L9.04996 12.12V12.121ZM18.95 0.808008L23.192 5.05001C23.3794 5.23754 23.4847 5.49184 23.4847 5.75701C23.4847 6.02217 23.3794 6.27648 23.192 6.46401L10.464 19.192C10.2764 19.3795 10.0221 19.4848 9.75696 19.4848C9.49179 19.4848 9.23749 19.3795 9.04996 19.192L4.80796 14.95C4.62049 14.7625 4.51517 14.5082 4.51517 14.243C4.51517 13.9778 4.62049 13.7235 4.80796 13.536L17.536 0.808008C17.7235 0.620537 17.9778 0.515221 18.243 0.515221C18.5081 0.515221 18.7624 0.620537 18.95 0.808008ZM16.12 16.363L17.535 14.949L19.777 17.192H21.191V15.778L18.949 13.535L20.363 12.121L23 14.757V19H18.758L16.121 16.363H16.12ZM7.63596 7.87801L4.80696 5.05001C4.71398 4.95713 4.64022 4.84685 4.5899 4.72545C4.53957 4.60405 4.51367 4.47392 4.51367 4.34251C4.51367 4.21109 4.53957 4.08097 4.5899 3.95957C4.64022 3.83817 4.71398 3.72788 4.80696 3.63501L7.63596 0.807008C7.82349 0.619536 8.07779 0.514221 8.34296 0.514221C8.60812 0.514221 8.86243 0.619536 9.04996 0.807008L11.88 3.63501L10.464 5.05001L8.34296 2.92801L6.92896 4.34301L9.04996 6.46301L7.63596 7.87801Z" fill="black"/>
</g>
<defs>
<filter id="filter0_d" x="0.513672" y="0.514221" width="26.9711" height="26.9706" filterUnits="userSpaceOnUse" color-interpolation-filters="sRGB">
<feFlood flood-opacity="0" result="BackgroundImageFix"/>
<feColorMatrix in="SourceAlpha" type="matrix" values="0 0 0 0 0 0 0 0 0 0 0 0 0 0 0 0 0 0 127 0" result="hardAlpha"/>
<feOffset dy="4"/>
<feGaussianBlur stdDeviation="2"/>
<feComposite in2="hardAlpha" operator="out"/>
<feColorMatrix type="matrix" values="0 0 0 0 0 0 0 0 0 0 0 0 0 0 0 0 0 0 0.25 0"/>
<feBlend mode="normal" in2="BackgroundImageFix" result="effect1_dropShadow"/>
<feBlend mode="normal" in="SourceGraphic" in2="effect1_dropShadow" result="shape"/>
</filter>
</defs>
</svg>
