<svg width="15" height="20" viewBox="0 0 15 20" fill="none" xmlns="http://www.w3.org/2000/svg">
<path d="M15 6V18.993C15.0007 19.1243 14.98 19.2545 14.9388 19.3762C14.8976 19.4979 14.8369 19.6087 14.76 19.7022C14.6832 19.7957 14.5918 19.8701 14.4909 19.9212C14.3901 19.9723 14.2819 19.9991 14.1725 20H0.827499C0.608177 20 0.397826 19.8955 0.242663 19.7095C0.0875011 19.5235 0.000220868 19.2712 0 19.008V0.992C0 0.455 0.374166 0 0.834999 0H9.99749L15 6ZM13.3333 7H9.16665V2H1.66666V18H13.3333V7ZM4.16666 5H6.66666V7H4.16666V5ZM4.16666 9H10.8333V11H4.16666V9ZM4.16666 13H10.8333V15H4.16666V13Z" fill="black"/>
</svg>
