<svg width="19" height="21" viewBox="0 0 19 21" fill="none" xmlns="http://www.w3.org/2000/svg">
<path d="M18.3704 9.94349C18.3704 9.94349 19.0212 8.9948 18.0719 8.34451C17.1238 7.69422 16.4735 8.64234 16.4735 8.64234L13.4544 13.0454C13.3503 12.8718 13.2365 12.7005 13.1094 12.5314L17.2998 6.42125C17.2998 6.42125 17.9501 5.47313 17.0014 4.82284C16.0532 4.17255 15.4029 5.12067 15.4029 5.12067L11.4615 10.8686C11.3149 10.749 11.1649 10.6289 11.0102 10.511L15.5795 3.84654C15.5795 3.84654 16.2298 2.89842 15.2811 2.24814C14.3329 1.59785 13.6826 2.54597 13.6826 2.54597L9.11339 9.20926C8.94549 9.10634 8.77933 9.01722 8.61259 8.92293L12.8834 2.69489C12.8834 2.69489 13.5337 1.74676 12.5856 1.09648C11.6375 0.44619 10.9872 1.39431 10.9872 1.39431L6.47141 7.97998L5.7849 8.98157C8.62984 10.933 8.90065 14.6042 7.27522 16.9748C6.95036 17.4491 6.47601 17.1243 6.47601 17.1243C8.42688 14.2787 7.83121 11.0814 4.9857 9.13049L5.82457 4.93208C5.82457 4.93208 6.13793 3.82585 5.03227 3.51191C3.92603 3.19856 3.6121 4.30479 3.6121 4.30479L2.64328 7.18193C2.2592 8.32266 1.8504 9.45937 1.30936 10.5346C-0.218328 13.5704 0.694145 17.3433 3.57473 19.3195C6.71692 21.4739 11.0125 20.673 13.1675 17.5313L18.3704 9.94349Z" fill="#AF7E57"/>
</svg>
