<svg width="64" height="63" viewBox="0 0 64 63" fill="none" xmlns="http://www.w3.org/2000/svg">
<path d="M62.7708 28.0339L46.0198 21.8334L39.7647 1.33271C39.5238 0.542118 38.7915 0 37.9652 0C37.1388 0 36.4066 0.542118 36.1657 1.33271L29.9125 21.8334L13.1595 28.0339C12.4198 28.3087 11.9304 29.0108 11.9304 29.7995C11.9304 30.5864 12.4198 31.2922 13.1595 31.5652L29.9031 37.7638L36.16 58.8894C36.3972 59.6875 37.1313 60.2353 37.9652 60.2353C38.7972 60.2353 39.5332 59.6875 39.7704 58.8875L46.0273 37.7619L62.7727 31.5633C63.5087 31.2922 64 30.5882 64 29.7995C64 29.0127 63.5087 28.3087 62.7708 28.0339Z" fill="#FFAC33"/>
<path d="M25.1238 48.7416L20.768 47.1304L19.0739 40.9186C18.8518 40.0979 18.1082 39.5294 17.2593 39.5294C16.4104 39.5294 15.6668 40.0979 15.4428 40.9167L13.7487 47.1285L9.39482 48.7398C8.65506 49.0127 8.16565 49.7186 8.16565 50.5054C8.16565 51.2922 8.65506 51.9981 9.39482 52.2711L13.7261 53.8767L15.4334 60.6946C15.6442 61.5304 16.3953 62.1176 17.2593 62.1176C18.1233 62.1176 18.8744 61.5304 19.0852 60.6927L20.7925 53.8748L25.1238 52.2692C25.8635 51.9981 26.3529 51.2922 26.3529 50.5054C26.3529 49.7186 25.8635 49.0127 25.1238 48.7416ZM16.9581 7.96424L12.5082 6.31718L10.8593 1.86541C10.5864 1.12565 9.88235 0.636238 9.09365 0.636238C8.30682 0.636238 7.60282 1.12565 7.328 1.86541L5.68094 6.31718L1.22918 7.96424C0.489412 8.23906 0 8.94306 0 9.72989C0 10.5167 0.489412 11.2226 1.22918 11.4955L5.68094 13.1426L7.328 17.5944C7.60282 18.3341 8.30682 18.8235 9.09365 18.8235C9.88047 18.8235 10.5845 18.3341 10.8593 17.5944L12.5064 13.1426L16.9581 11.4955C17.6979 11.2207 18.1873 10.5167 18.1873 9.72989C18.1873 8.94306 17.6979 8.23906 16.9581 7.96424Z" fill="#FFCC4D"/>
</svg>
