<svg width="64" height="63" viewBox="0 0 64 63" fill="none" xmlns="http://www.w3.org/2000/svg">
<path d="M20.6678 12.2787C20.4687 12.4778 20.3176 12.7178 20.1914 12.9809L20.1771 12.9667L0.238232 57.8826L0.257787 57.9021C-0.111979 58.6186 0.506668 60.0763 1.77418 61.3456C3.0417 62.6131 4.49943 63.2318 5.21585 62.862L5.23363 62.8798L50.1495 42.9391L50.1353 42.9231C50.3966 42.7986 50.6366 42.6475 50.8375 42.4449C53.6143 39.6681 49.1113 30.6639 40.7827 22.3335C32.4505 14.0031 23.4464 9.50192 20.6678 12.2787Z" fill="#DD2E44"/>
<path d="M23.1104 20.2998L0.739549 56.7537L0.238232 57.8826L0.257787 57.9021C-0.111979 58.6185 0.506668 60.0763 1.77418 61.3456C2.18661 61.758 2.61504 62.0709 3.03459 62.3358L30.2213 29.1884L23.1104 20.2998Z" fill="#EA596E"/>
<path d="M40.9089 22.1948C49.2109 30.5003 53.8205 39.3534 51.2002 41.9702C48.5816 44.5906 39.7285 39.9827 31.4212 31.6808C23.1175 23.3752 18.5096 14.5186 21.1282 11.9001C23.7486 9.28147 32.6016 13.8893 40.9089 22.1948Z" fill="#A0041E"/>
<path d="M33.0478 23.1601C32.694 23.4464 32.2318 23.5957 31.743 23.5424C30.1999 23.3752 28.9022 22.8384 27.9937 21.9904C27.032 21.0927 26.5573 19.8874 26.6871 18.6803C26.9147 16.5612 29.0408 14.6164 32.6656 15.0075C34.0753 15.1586 34.7046 14.7053 34.726 14.4884C34.7509 14.2733 34.2335 13.6956 32.8238 13.5427C31.2808 13.3756 29.983 12.8387 29.0728 11.9907C28.1111 11.093 27.6346 9.88768 27.7662 8.68061C27.9973 6.56156 30.1217 4.61674 33.7429 5.00961C34.7704 5.11983 35.3126 4.90828 35.5419 4.7714C35.7251 4.6594 35.7979 4.55274 35.8051 4.49052C35.8264 4.27541 35.3162 3.69765 33.9029 3.54477C32.9269 3.43811 32.2194 2.56347 32.3278 1.58572C32.4327 0.609754 33.3056 -0.0960017 34.2851 0.0106616C37.9063 0.399982 39.5703 2.75191 39.3409 4.87273C39.1098 6.99533 36.9855 8.9366 33.3607 8.54728C32.3332 8.43528 31.7963 8.64861 31.5652 8.78549C31.3821 8.89571 31.3074 9.00415 31.3003 9.06459C31.2772 9.28148 31.791 9.85746 33.2042 10.0103C36.8255 10.4014 38.4894 12.7516 38.2601 14.8724C38.0308 16.9915 35.9064 18.9363 32.2834 18.5434C31.2559 18.4332 30.7154 18.6465 30.4843 18.7816C30.2995 18.8954 30.2283 19.0021 30.2212 19.0625C30.1981 19.2776 30.7119 19.8554 32.1234 20.0082C33.0976 20.1149 33.8069 20.9913 33.6985 21.9673C33.6487 22.4544 33.4016 22.8757 33.0478 23.1601Z" fill="#AA8DD8"/>
<path d="M54.5067 39.6005C58.0142 38.6103 60.4336 40.1747 61.0096 42.228C61.5856 44.2795 60.3376 46.8767 56.832 47.8634C55.4631 48.2473 55.0525 48.9015 55.1076 49.1095C55.168 49.3193 55.8631 49.6642 57.2284 49.2784C60.7341 48.2918 63.1535 49.8562 63.7295 51.9077C64.3091 53.9609 63.0576 56.5546 59.5501 57.543C58.183 57.927 57.7706 58.583 57.831 58.791C57.8897 58.999 58.583 59.3439 59.9501 58.9599C60.8923 58.695 61.8771 59.2443 62.142 60.1883C62.4051 61.134 61.8558 62.1153 60.9101 62.382C57.4062 63.3686 54.9849 61.8078 54.4054 59.7528C53.8294 57.7013 55.0791 55.1076 58.5884 54.1192C59.9572 53.7334 60.3679 53.081 60.3074 52.8712C60.2505 52.6632 59.5572 52.3165 58.1919 52.7005C54.6827 53.6889 52.265 52.1281 51.6872 50.0713C51.1095 48.0198 52.3592 45.4261 55.8667 44.4359C57.232 44.0537 57.6426 43.3959 57.5857 43.1897C57.5253 42.98 56.8338 42.6351 55.4667 43.0191C54.5209 43.2857 53.5414 42.7346 53.2748 41.7907C53.0099 40.8485 53.561 39.8672 54.5067 39.6005Z" fill="#77B255"/>
<path d="M40.8893 34.806C40.3667 34.806 39.8512 34.5767 39.4992 34.1393C38.8859 33.3714 39.0121 32.2532 39.7765 31.6399C40.164 31.3288 49.4082 24.0686 62.4727 25.9369C63.4451 26.0756 64.1206 26.9751 63.9819 27.9475C63.8433 28.9182 62.9509 29.6008 61.9696 29.455C50.4268 27.816 42.0822 34.3509 42.0004 34.4167C41.6698 34.6798 41.2787 34.806 40.8893 34.806Z" fill="#AA8DD8"/>
<path d="M10.229 27.4107C10.0601 27.4107 9.88769 27.3858 9.71703 27.336C8.77661 27.0533 8.2433 26.0631 8.52595 25.1227C10.5401 18.4154 12.3658 7.71173 10.1223 4.92071C9.87169 4.60428 9.49304 4.29317 8.62551 4.35895C6.958 4.48695 7.11622 8.00506 7.118 8.04061C7.19266 9.02013 6.45669 9.87344 5.47894 9.94633C4.4852 10.0068 3.64611 9.28501 3.57322 8.30549C3.39012 5.85401 4.15276 1.13239 8.35885 0.814175C10.2361 0.671957 11.7952 1.32438 12.8956 2.69323C17.1106 7.93928 12.8316 23.1477 11.9321 26.1449C11.701 26.9147 10.9934 27.4107 10.229 27.4107Z" fill="#77B255"/>
<path d="M45.3319 18.5221C46.8046 18.5221 47.9985 17.3282 47.9985 15.8555C47.9985 14.3828 46.8046 13.1889 45.3319 13.1889C43.8592 13.1889 42.6653 14.3828 42.6653 15.8555C42.6653 17.3282 43.8592 18.5221 45.3319 18.5221Z" fill="#5C913B"/>
<path d="M3.55544 34.5215C5.51906 34.5215 7.11088 32.9297 7.11088 30.9661C7.11088 29.0025 5.51906 27.4107 3.55544 27.4107C1.59183 27.4107 0 29.0025 0 30.9661C0 32.9297 1.59183 34.5215 3.55544 34.5215Z" fill="#9266CC"/>
<path d="M57.776 36.2993C59.2487 36.2993 60.4425 35.1054 60.4425 33.6327C60.4425 32.16 59.2487 30.9661 57.776 30.9661C56.3032 30.9661 55.1094 32.16 55.1094 33.6327C55.1094 35.1054 56.3032 36.2993 57.776 36.2993Z" fill="#5C913B"/>
<path d="M41.7764 57.6319C43.2492 57.6319 44.443 56.438 44.443 54.9653C44.443 53.4926 43.2492 52.2988 41.7764 52.2988C40.3037 52.2988 39.1099 53.4926 39.1099 54.9653C39.1099 56.438 40.3037 57.6319 41.7764 57.6319Z" fill="#5C913B"/>
<path d="M49.7762 9.63345C51.7398 9.63345 53.3316 8.04163 53.3316 6.07801C53.3316 4.11439 51.7398 2.52257 49.7762 2.52257C47.8126 2.52257 46.2207 4.11439 46.2207 6.07801C46.2207 8.04163 47.8126 9.63345 49.7762 9.63345Z" fill="#FFCC4D"/>
<path d="M57.776 16.7443C59.2487 16.7443 60.4425 15.5505 60.4425 14.0778C60.4425 12.605 59.2487 11.4112 57.776 11.4112C56.3032 11.4112 55.1094 12.605 55.1094 14.0778C55.1094 15.5505 56.3032 16.7443 57.776 16.7443Z" fill="#FFCC4D"/>
<path d="M52.4428 23.8552C53.9155 23.8552 55.1093 22.6614 55.1093 21.1886C55.1093 19.7159 53.9155 18.5221 52.4428 18.5221C50.9701 18.5221 49.7762 19.7159 49.7762 21.1886C49.7762 22.6614 50.9701 23.8552 52.4428 23.8552Z" fill="#FFCC4D"/>
<path d="M13.3329 43.4102C14.8056 43.4102 15.9995 42.2163 15.9995 40.7436C15.9995 39.2709 14.8056 38.077 13.3329 38.077C11.8602 38.077 10.6663 39.2709 10.6663 40.7436C10.6663 42.2163 11.8602 43.4102 13.3329 43.4102Z" fill="#FFCC4D"/>
</svg>
