<svg width="64" height="64" viewBox="0 0 64 64" fill="none" xmlns="http://www.w3.org/2000/svg">
<path d="M32 14.2222L19.5556 0H0L24.8889 30.2222L45.3707 21.7778L32 14.2222Z" fill="#55ACEE"/>
<path d="M44.4444 0L32 14.2222L41.5822 27.2213L43.7636 24.5742L64 0H44.4444Z" fill="#3B88C3"/>
<path d="M41.3511 28.4907C41.4933 28.1049 41.584 27.6942 41.584 27.2587C41.584 25.296 39.9911 23.7031 38.0284 23.7031H26.176C24.2115 23.7031 22.6204 25.296 22.6204 27.2587C22.6204 27.6942 22.7093 28.1049 22.8533 28.4907C17.0613 31.7369 13.1395 37.9253 13.1395 45.0365C13.1395 55.5093 21.6284 64 32.1031 64C42.576 64 51.0666 55.5093 51.0666 45.0365C51.0649 37.9253 47.1449 31.7369 41.3511 28.4907Z" fill="#FFAC33"/>
<path d="M32.1031 59.2587C39.9579 59.2587 46.3254 52.8912 46.3254 45.0365C46.3254 37.1817 39.9579 30.8142 32.1031 30.8142C24.2484 30.8142 17.8809 37.1817 17.8809 45.0365C17.8809 52.8912 24.2484 59.2587 32.1031 59.2587Z" fill="#FFD983"/>
<path d="M37.8275 54.4604C37.5751 54.4604 37.3227 54.3822 37.1058 54.2275L32 50.5671L26.896 54.2275C26.4604 54.5387 25.8773 54.5387 25.4453 54.2222C25.0133 53.9093 24.832 53.3529 24.992 52.8462L26.896 46.7022L21.8382 43.1378C21.408 42.8213 21.2302 42.2631 21.3938 41.7547C21.5591 41.248 22.0302 40.9031 22.5653 40.8995L28.8302 40.8907L30.8249 34.8995C30.9938 34.3929 31.4667 34.0515 32.0018 34.0515C32.5351 34.0515 33.0098 34.3929 33.1787 34.8995L35.1395 40.8907L41.4364 40.8995C41.9715 40.9031 42.4444 41.248 42.608 41.7547C42.7733 42.2631 42.5938 42.8195 42.1635 43.1378L37.104 46.7022L39.008 52.8462C39.1715 53.3547 38.9867 53.9093 38.5564 54.2222C38.3378 54.3822 38.0818 54.4604 37.8275 54.4604Z" fill="#FFAC33"/>
</svg>
