<svg width="12" height="12" viewBox="0 0 12 12" fill="none" xmlns="http://www.w3.org/2000/svg">
<path d="M11.7696 5.43281L8.62883 4.27022L7.456 0.426335C7.41083 0.2781 7.27353 0.176453 7.11859 0.176453C6.96365 0.176453 6.82635 0.2781 6.78118 0.426335L5.60871 4.27022L2.46753 5.43281C2.32883 5.48434 2.23706 5.61598 2.23706 5.76386C2.23706 5.91139 2.32883 6.04375 2.46753 6.09492L5.60694 7.25716L6.78012 11.2182C6.82459 11.3679 6.96224 11.4706 7.11859 11.4706C7.27459 11.4706 7.41259 11.3679 7.45706 11.2179L8.63024 7.25681L11.77 6.09457C11.908 6.04375 12.0001 5.91175 12.0001 5.76386C12.0001 5.61634 11.908 5.48434 11.7696 5.43281Z" fill="#FFAC33"/>
<path d="M4.71071 9.31551L3.894 9.01339L3.57635 7.84869C3.53471 7.69481 3.39529 7.58822 3.23612 7.58822C3.07694 7.58822 2.93753 7.69481 2.89553 7.84833L2.57788 9.01304L1.76153 9.31516C1.62282 9.36633 1.53106 9.49869 1.53106 9.64622C1.53106 9.79375 1.62282 9.9261 1.76153 9.97728L2.57365 10.2783L2.89376 11.5567C2.93329 11.7134 3.07412 11.8235 3.23612 11.8235C3.39812 11.8235 3.53894 11.7134 3.57847 11.5563L3.89859 10.278L4.71071 9.97692C4.84941 9.9261 4.94118 9.79375 4.94118 9.64622C4.94118 9.49869 4.84941 9.36633 4.71071 9.31551ZM3.17965 1.66975L2.34529 1.36092L2.03612 0.526216C1.98494 0.387511 1.85294 0.295746 1.70506 0.295746C1.55753 0.295746 1.42553 0.387511 1.374 0.526216L1.06518 1.36092L0.230471 1.66975C0.0917647 1.72128 0 1.85328 0 2.0008C0 2.14833 0.0917647 2.28069 0.230471 2.33186L1.06518 2.64069L1.374 3.47539C1.42553 3.6141 1.55753 3.70586 1.70506 3.70586C1.85259 3.70586 1.98459 3.6141 2.03612 3.47539L2.34494 2.64069L3.17965 2.33186C3.31835 2.28033 3.41012 2.14833 3.41012 2.0008C3.41012 1.85328 3.31835 1.72128 3.17965 1.66975Z" fill="#FFCC4D"/>
</svg>
