<svg width="99" height="60" viewBox="0 0 99 60" fill="none" xmlns="http://www.w3.org/2000/svg">
<rect y="11.6339" width="92.7577" height="47.9248" rx="23.9624" transform="rotate(-7.20513 0 11.6339)" fill="#FFF0F0"/>
<path d="M22.7234 23.982C22.9165 24.0117 23.1239 24.1004 23.3455 24.2483C23.5671 24.3961 23.7371 24.564 23.8555 24.7519C24.0424 25.0529 24.2302 25.4688 24.4191 25.9995C24.6212 26.5285 24.8461 27.2373 25.0937 28.1258C25.2107 28.5168 25.3446 28.9869 25.4951 29.536C25.6307 30.0734 25.7722 30.6575 25.9195 31.2881C26.1991 32.4296 26.4621 33.6002 26.7084 34.8C26.9698 36.0114 27.1701 37.0073 27.3093 37.7878C27.3329 37.9742 27.3531 38.1339 27.3699 38.2671C27.4019 38.52 27.4105 38.6948 27.3956 38.7914C27.3725 38.9296 27.2637 39.0853 27.0692 39.2587C26.9961 39.3221 26.9212 39.3721 26.8447 39.4089C26.7682 39.4456 26.6634 39.4724 26.5302 39.4892C26.4903 39.4942 26.457 39.4984 26.4304 39.5018C26.3638 39.5102 26.3039 39.5178 26.2506 39.5245C26.1424 39.5247 26.0675 39.5206 26.0259 39.5124C25.9293 39.4975 25.8153 39.4511 25.6837 39.373C25.5521 39.295 25.4537 39.2127 25.3887 39.1263C25.3553 39.0764 25.311 38.9399 25.2558 38.717C25.2005 38.494 25.1293 38.1445 25.0421 37.6686C24.8358 36.572 24.7009 35.8789 24.6372 35.5894C24.5719 35.2865 24.5217 35.1035 24.4866 35.0403C24.4533 34.9904 24.3892 34.9647 24.2943 34.9631C24.1878 34.9766 23.8749 35.0162 23.3556 35.0818C23.0627 35.1188 22.8031 35.1517 22.5768 35.1803C22.3655 35.2205 22.2473 35.249 22.2224 35.2657C22.2091 35.2673 22.1951 35.4247 22.1806 35.7376C22.166 36.0506 22.1549 36.3901 22.147 36.7563C22.1391 37.0144 22.1294 37.2591 22.1181 37.4904C22.1201 37.7201 22.1229 37.9024 22.1264 38.0372C22.1251 38.3485 22.1197 38.6265 22.1101 38.8712C22.1004 39.1159 22.0848 39.2599 22.0632 39.3032C22.0052 39.4864 21.8631 39.6464 21.6369 39.7832C21.4241 39.9183 21.2019 39.9802 20.9706 39.9689C20.6992 39.9626 20.4661 39.8838 20.2711 39.7326C20.0895 39.5798 19.9844 39.3901 19.9557 39.1638C19.9473 39.0972 19.9363 38.9566 19.9227 38.7419C19.9108 38.5405 19.9038 38.325 19.9018 38.0953C19.9066 37.9188 19.9088 37.7224 19.9085 37.506C19.9065 37.2763 19.8979 37.0475 19.8826 36.8194C19.8821 36.4949 19.8659 36.2061 19.8339 35.9531C19.8019 35.7002 19.7468 35.5854 19.6686 35.6088C19.657 35.6238 19.6246 35.6347 19.5713 35.6414C19.5314 35.6464 19.4781 35.6532 19.4115 35.6616C19.0138 35.7254 18.7315 35.5785 18.5645 35.2208C18.4944 35.0944 18.4518 34.9713 18.4367 34.8515C18.4097 34.6385 18.4511 34.4303 18.5606 34.2271C18.6304 34.1371 18.721 34.0513 18.8324 33.9696C18.9305 33.8895 19.0586 33.8328 19.2167 33.7993C19.4413 33.7573 19.6061 33.723 19.7109 33.6962C19.8157 33.6694 19.8806 33.6477 19.9056 33.631C19.9172 33.616 19.9287 33.5469 19.9402 33.4237C19.9517 33.3005 19.9615 33.164 19.9696 33.0142C19.9705 32.4866 19.9839 31.9506 20.0098 31.4062C20.049 30.8602 20.0899 30.3275 20.1324 29.8081C20.2243 28.8226 20.3403 27.9219 20.4807 27.1061C20.6343 26.2886 20.7924 25.6667 20.955 25.2403C21.0993 24.8839 21.287 24.6032 21.5181 24.3981C21.7475 24.1798 22.0078 24.0454 22.299 23.9951C22.3256 23.9917 22.3456 23.9892 22.3589 23.9875C22.4122 23.9808 22.4663 23.9807 22.5212 23.9873C22.5878 23.9788 22.6552 23.9771 22.7234 23.982ZM22.2146 33.2782C22.248 33.3281 22.3112 33.3472 22.4044 33.3354C22.4177 33.3337 22.4444 33.3303 22.4843 33.3253C22.6174 33.3085 22.8429 33.2732 23.1608 33.2195C23.3988 33.1759 23.6043 33.1431 23.7774 33.1212C23.9488 33.086 24.0403 33.061 24.0519 33.046C24.0519 33.046 24.0502 33.0326 24.0469 33.006C24.0351 32.9128 23.9856 32.6823 23.8986 32.3146C23.7847 31.842 23.6566 31.3104 23.5143 30.7197C23.4089 30.3137 23.3052 29.921 23.2031 29.5417C23.101 29.1623 23.0123 28.8353 22.9371 28.5608C22.8618 28.2862 22.7957 28.0849 22.739 27.9568C22.6955 27.8271 22.6605 27.7639 22.6338 27.7672C22.5956 27.7856 22.5443 28.022 22.48 28.4765C22.4307 28.9427 22.3824 29.4696 22.3349 30.0572C22.2644 30.783 22.2179 31.4855 22.1956 32.1647C22.1796 32.6807 22.1818 33.0186 22.202 33.1784C22.2087 33.2316 22.2129 33.2649 22.2146 33.2782ZM35.4914 37.8288C35.0851 37.7178 34.7319 37.546 34.432 37.3134C34.1338 37.0941 33.8737 36.8024 33.6518 36.4381C33.5 36.2003 33.3648 35.9334 33.2462 35.6372C33.116 35.3561 33.0065 35.025 32.9177 34.644C32.7821 34.1065 32.663 33.4317 32.5603 32.6196C32.525 32.34 32.4946 32.0463 32.4692 31.7384C32.3427 30.5234 32.213 28.8558 32.0802 26.7353C32.0463 26.2527 32.0199 25.8299 32.0011 25.4671C31.9839 25.1176 31.966 24.8155 31.9474 24.5608C31.9299 23.9949 31.9403 23.6487 31.9784 23.5221C32.0281 23.3806 32.1186 23.2406 32.2499 23.1023C32.4311 22.9306 32.6349 22.8304 32.8612 22.8018C32.9944 22.785 33.1384 22.8006 33.2932 22.8486C33.6995 22.9596 33.962 23.2172 34.0808 23.6215C34.1059 23.7131 34.1278 23.9402 34.1467 24.3031C34.1805 24.6776 34.2077 25.107 34.2284 25.5913C34.259 26.0473 34.2956 26.6582 34.3383 27.4238C34.3926 28.1744 34.4368 28.8452 34.4709 29.436C34.5962 30.9622 34.7177 32.1372 34.8354 32.961C34.9664 33.7831 35.1271 34.412 35.3174 34.8479C35.4911 35.2588 35.6787 35.5123 35.8803 35.6086C36.0702 35.7199 36.3548 35.7244 36.7342 35.6224C36.9821 35.5505 37.2973 35.4227 37.6799 35.2391C38.0608 35.0421 38.445 34.8177 38.8325 34.5658C39.0836 34.4123 39.2608 34.3155 39.3639 34.2754C39.467 34.2353 39.586 34.2135 39.7209 34.21C39.9222 34.1981 40.0946 34.2236 40.2378 34.2867C40.3793 34.3364 40.5135 34.4345 40.6402 34.5808C40.7052 34.6672 40.7495 34.7496 40.7729 34.8278C40.8079 34.891 40.833 34.9825 40.8482 35.1023C40.8515 35.1289 40.8482 35.1564 40.8383 35.1847C40.8804 35.5175 40.8183 35.7756 40.6521 35.959C40.4859 36.1423 40.0627 36.4325 39.3825 36.8296C39.1546 36.9531 38.9009 37.0866 38.6215 37.2302C38.3287 37.3754 38.0925 37.4864 37.9129 37.5632C37.6284 37.6668 37.4138 37.7345 37.269 37.7664C37.1908 37.7898 37.0984 37.8082 36.9919 37.8217C36.8721 37.8368 36.7248 37.8487 36.55 37.8573C36.2555 37.881 36.0408 37.8946 35.9059 37.8981C35.7694 37.8883 35.6312 37.8652 35.4914 37.8288ZM45.5696 26.2271C46.1741 26.4077 46.6922 26.7074 47.1239 27.1263C47.5556 27.5451 47.8868 28.0781 48.1174 28.7253C48.2744 29.1113 48.3739 29.4707 48.416 29.8035C48.4581 30.1364 48.4545 30.5359 48.4052 31.002C48.3544 31.563 48.2469 32.05 48.0826 32.4631C47.9301 32.8611 47.6901 33.2634 47.3628 33.67C46.9174 34.2133 46.3654 34.6077 45.7065 34.8533C45.4354 34.9552 45.1725 35.0155 44.9178 35.0342C44.545 35.0813 44.1771 35.0602 43.8141 34.9708C43.2963 34.8334 42.829 34.561 42.4123 34.1538C41.9956 33.7466 41.677 33.2593 41.4565 32.692C41.3111 32.2911 41.2099 31.9184 41.1528 31.5739C41.1511 31.5606 41.1503 31.5539 41.1503 31.5539C41.1065 31.2078 41.1018 30.7958 41.1361 30.318C41.1704 29.8403 41.2314 29.4132 41.3191 29.0369C41.4051 28.6473 41.5418 28.231 41.7293 27.788C42.0445 27.0718 42.3293 26.5962 42.5837 26.3611C42.7532 26.2044 42.9512 26.1118 43.1775 26.0831C43.2973 26.068 43.4255 26.0653 43.562 26.0751C43.632 26.0933 43.7543 26.0982 43.9291 26.0896C44.0922 26.096 44.262 26.1016 44.4384 26.1063C44.5866 26.1011 44.7081 26.0993 44.803 26.1008C44.8962 26.0891 44.9844 26.0914 45.0676 26.108C45.1492 26.1112 45.2249 26.1219 45.2949 26.1401C45.3781 26.1566 45.4697 26.1856 45.5696 26.2271ZM43.9922 28.3541C43.889 28.3942 43.7836 28.5766 43.6758 28.9013C43.5681 29.2261 43.4779 29.5824 43.4052 29.9703C43.3772 30.1768 43.3558 30.3824 43.3411 30.5871C43.3247 30.7786 43.3258 30.9475 43.3443 31.094C43.3511 31.1472 43.3569 31.1938 43.362 31.2338C43.4377 31.8329 43.6364 32.2812 43.9581 32.5787C44.1997 32.7781 44.4537 32.861 44.72 32.8273C44.8531 32.8105 44.9895 32.7662 45.1293 32.6944C45.4835 32.5008 45.7669 32.1742 45.9793 31.7145C46.19 31.2415 46.2709 30.7578 46.222 30.2635C46.2186 30.2369 46.2152 30.2102 46.2119 30.1836C46.1614 29.7842 46.041 29.4207 45.8508 29.093C45.6306 28.7421 45.3856 28.5161 45.1158 28.4149C45.0592 28.395 44.9959 28.376 44.926 28.3578C44.856 28.3396 44.7803 28.3288 44.6987 28.3256C44.5472 28.3042 44.4049 28.3019 44.2717 28.3187C44.2168 28.3122 44.1694 28.3114 44.1294 28.3164C44.0629 28.3249 44.0171 28.3374 43.9922 28.3541ZM52.5632 35.1633C52.4066 35.1019 52.2667 35.0114 52.1433 34.8917C52.0183 34.7588 51.9399 34.6199 51.908 34.4751C51.8863 34.4102 51.8561 34.2247 51.8174 33.9185C51.7787 33.6122 51.7357 33.2727 51.6886 32.9C51.6548 32.5255 51.5974 31.9646 51.5165 31.2174C51.4355 30.4701 51.353 29.7636 51.2688 29.0979C51.183 28.4189 51.1013 27.7191 51.0237 26.9985C50.9461 26.2779 50.8863 25.7511 50.8442 25.4183C50.8171 25.0971 50.781 24.8108 50.7357 24.5595C50.7054 24.3199 50.6827 24.1942 50.6677 24.1826C50.666 24.1693 50.5112 24.1753 50.2033 24.2007C49.8971 24.2394 49.6849 24.273 49.5668 24.3015C49.1957 24.3619 48.9036 24.3515 48.6904 24.2703C48.4639 24.1907 48.2881 24.0303 48.1629 23.7891C48.0911 23.6494 48.0468 23.513 48.03 23.3798C48.0115 23.2334 48.0204 23.0902 48.0569 22.9503C48.1297 22.6706 48.2859 22.4615 48.5254 22.323C48.5753 22.2896 48.8249 22.231 49.2742 22.1472C49.7235 22.0633 50.0995 21.9887 50.4024 21.9234C51.1696 21.7858 51.8369 21.6609 52.4043 21.5486C52.9867 21.4479 53.6765 21.2863 54.4735 21.0638C55.0874 20.8915 55.4868 20.7869 55.6715 20.75C55.7114 20.745 55.7514 20.7399 55.7913 20.7349C55.9111 20.7197 56.0193 20.7196 56.1159 20.7344C56.354 20.799 56.5522 20.9227 56.7106 21.1056C56.8373 21.2519 56.9142 21.4316 56.9411 21.6446C56.9461 21.6845 56.9512 21.7245 56.9562 21.7644C56.9715 21.9924 56.9352 22.1864 56.8472 22.3463C56.7609 22.5196 56.6296 22.6579 56.4533 22.7613C56.3651 22.8131 56.0265 22.9167 55.4375 23.0724C54.8485 23.228 54.2786 23.3744 53.7278 23.5117C53.5298 23.5502 53.3593 23.5921 53.2162 23.6372C53.0731 23.6824 52.9891 23.7133 52.9641 23.73C52.9292 23.775 52.9372 24.1054 52.988 24.7212C53.0521 25.3353 53.1945 26.5685 53.4151 28.4208C53.5146 29.3145 53.6047 30.0809 53.6855 30.72C53.7513 31.3474 53.8119 31.8808 53.8675 32.3201C53.9821 33.3337 54.037 33.9287 54.0323 34.1051C54.0292 34.2949 54.002 34.4539 53.9506 34.5821C53.8361 34.8536 53.6441 35.0469 53.3746 35.1622C53.2715 35.2023 53.1733 35.2282 53.0801 35.24C52.907 35.2619 52.7347 35.2363 52.5632 35.1633ZM68.6758 23.306C69.2803 23.4866 69.7984 23.7863 70.2301 24.2052C70.6618 24.624 70.9929 25.1571 71.2235 25.8042C71.3805 26.1902 71.4801 26.5496 71.5221 26.8824C71.5642 27.2153 71.5606 27.6148 71.5113 28.0809C71.4605 28.6419 71.353 29.1289 71.1888 29.542C71.0362 29.94 70.7963 30.3423 70.4689 30.7489C70.0236 31.2922 69.4715 31.6866 68.8127 31.9322C68.5415 32.0341 68.2786 32.0944 68.024 32.1131C67.6512 32.1602 67.2833 32.1391 66.9203 32.0497C66.4024 31.9123 65.9352 31.64 65.5185 31.2327C65.1018 30.8255 64.7832 30.3383 64.5626 29.771C64.4173 29.37 64.316 28.9973 64.259 28.6528C64.2573 28.6395 64.2564 28.6329 64.2564 28.6329C64.2127 28.2867 64.208 27.8747 64.2422 27.397C64.2765 26.9192 64.3375 26.4922 64.4252 26.1159C64.5112 25.7262 64.648 25.3099 64.8354 24.8669C65.1507 24.1507 65.4355 23.6751 65.6898 23.44C65.8594 23.2833 66.0573 23.1907 66.2837 23.1621C66.4035 23.1469 66.5317 23.1442 66.6682 23.154C66.7381 23.1722 66.8605 23.1771 67.0352 23.1685C67.1984 23.1749 67.3681 23.1805 67.5446 23.1853C67.6927 23.1801 67.8142 23.1782 67.9091 23.1798C68.0023 23.168 68.0905 23.1704 68.1738 23.1869C68.2553 23.1901 68.3311 23.2008 68.401 23.219C68.4843 23.2355 68.5759 23.2645 68.6758 23.306ZM67.0983 25.433C66.9952 25.4731 66.8897 25.6555 66.782 25.9802C66.6742 26.305 66.584 26.6613 66.5113 27.0492C66.4833 27.2557 66.462 27.4613 66.4473 27.666C66.4309 27.8575 66.432 28.0264 66.4505 28.1729C66.4572 28.2261 66.4631 28.2727 66.4682 28.3127C66.5439 28.9118 66.7426 29.3601 67.0643 29.6576C67.3059 29.857 67.5599 29.9399 67.8261 29.9062C67.9593 29.8894 68.0957 29.8451 68.2354 29.7733C68.5897 29.5797 68.873 29.2531 69.0855 28.7934C69.2962 28.3204 69.3771 27.8367 69.3281 27.3424C69.3247 27.3158 69.3214 27.2892 69.318 27.2625C69.2675 26.8631 69.1472 26.4996 68.957 26.1719C68.7367 25.821 68.4917 25.595 68.2219 25.4938C68.1653 25.4739 68.102 25.4549 68.0321 25.4367C67.9622 25.4185 67.8864 25.4078 67.8049 25.4045C67.6534 25.3831 67.511 25.3808 67.3779 25.3976C67.323 25.3911 67.2755 25.3903 67.2356 25.3953C67.169 25.4038 67.1233 25.4163 67.0983 25.433ZM73.9991 34.1171C73.8558 34.0541 73.7301 33.9685 73.6217 33.8605C73.4984 33.7408 73.4167 33.6294 73.3766 33.5263C73.3164 33.3716 73.2469 33.0895 73.1681 32.6802C73.0893 32.2708 73.0071 31.7807 72.9214 31.2099C72.7584 30.1348 72.5878 28.8917 72.4093 27.4804C72.2292 26.0558 72.0876 24.7211 71.9843 23.4762C71.9404 23.0218 71.9049 22.634 71.8778 22.3128C71.849 21.9783 71.8203 21.6979 71.7917 21.4715C71.7308 20.7758 71.6762 20.3972 71.6278 20.3357C71.5812 20.2875 71.4937 20.2377 71.3655 20.1863C71.0824 20.0868 70.8732 19.9306 70.7381 19.7178C70.6397 19.5814 70.5796 19.4267 70.5577 19.2536C70.5476 19.1737 70.5508 19.0922 70.5674 19.0089C70.5655 18.8874 70.6144 18.7392 70.714 18.5643C70.8154 18.4027 70.9217 18.281 71.0331 18.1993C71.083 18.1659 71.2119 18.1158 71.4199 18.049C71.6163 17.9971 71.8708 17.9243 72.1836 17.8307C72.7593 17.6767 73.4673 17.4993 74.3076 17.2984C75.1479 17.0975 75.9966 16.909 76.8536 16.733C77.4743 16.614 77.8578 16.5452 78.0043 16.5267C78.0176 16.525 78.0243 16.5242 78.0243 16.5242C78.1707 16.5057 78.3139 16.5146 78.4538 16.551C78.6652 16.619 78.8335 16.7195 78.9585 16.8524C79.0719 17.0004 79.1496 17.1867 79.1915 17.4114C79.2116 17.463 79.2249 17.5154 79.2317 17.5686C79.2418 17.6485 79.2435 17.7159 79.237 17.7709C79.2321 17.8391 79.1972 17.9382 79.1325 18.0681C79.0362 18.2697 78.9066 18.4213 78.7436 18.5231C78.579 18.6115 78.292 18.6952 77.8826 18.774C76.7228 19.0153 75.7818 19.2222 75.0596 19.3946C74.3491 19.5521 73.9697 19.6541 73.9215 19.7008C73.9082 19.7025 73.9143 19.9114 73.9399 20.3275C73.9654 20.7436 73.9985 21.2196 74.0392 21.7555C74.0951 22.4113 74.1534 23.0329 74.2141 23.6204C74.2749 24.2079 74.3136 24.5141 74.3302 24.539C74.3436 24.5373 74.4093 24.5223 74.5274 24.4938C74.6589 24.4637 74.8095 24.4243 74.9792 24.3758C75.4583 24.207 75.8061 24.1225 76.0225 24.1222C76.2389 24.1219 76.4437 24.1907 76.637 24.3286C76.772 24.4332 76.8736 24.5421 76.942 24.6552C77.0088 24.755 77.0522 24.8848 77.0724 25.0445C77.0943 25.2176 77.0928 25.3666 77.0681 25.4915C77.0433 25.6163 76.9843 25.7388 76.8913 25.8587C76.7866 25.9937 76.6769 26.0887 76.5621 26.1438C76.4607 26.1972 76.1637 26.3092 75.6712 26.4796C75.425 26.5649 75.1987 26.6476 74.9925 26.7278C74.7995 26.8063 74.6847 26.8614 74.6481 26.893C74.6099 26.9114 74.56 26.9448 74.4985 26.9931C74.564 27.4042 74.6547 28.0149 74.7707 28.8254C74.848 29.3296 74.9378 29.8796 75.0401 30.4754C75.1292 31.0728 75.2089 31.5429 75.2793 31.8857C75.3347 32.2169 75.3867 32.5214 75.4354 32.7993C75.4691 33.0656 75.4818 33.2196 75.4735 33.2612C75.4603 33.3711 75.4031 33.5068 75.3018 33.6684C75.1872 33.8317 75.08 33.9467 74.9802 34.0134C74.8804 34.0801 74.7373 34.1253 74.5509 34.1488C74.5243 34.1522 74.5043 34.1547 74.491 34.1564C74.278 34.1833 74.114 34.1703 73.9991 34.1171Z" fill="#FF0000"/>
</svg>
