<svg width="183" height="107" viewBox="0 0 183 107" fill="none" xmlns="http://www.w3.org/2000/svg">
<path d="M53.7422 37.1953C54.1068 37.2995 54.4844 37.5208 54.875 37.8594C55.2656 38.1979 55.5521 38.5625 55.7344 38.9531C56.0208 39.5781 56.2812 40.4245 56.5156 41.4922C56.776 42.5599 57.0365 43.9792 57.2969 45.75C57.4271 46.5312 57.5703 47.4688 57.7266 48.5625C57.8568 49.6302 57.987 50.7891 58.1172 52.0391C58.3776 54.3047 58.599 56.6224 58.7812 58.9922C58.9896 61.388 59.1328 63.3542 59.2109 64.8906C59.2109 65.2552 59.2109 65.5677 59.2109 65.8281C59.2109 66.3229 59.1849 66.6615 59.1328 66.8438C59.0547 67.1042 58.8073 67.3776 58.3906 67.6641C58.2344 67.7682 58.0781 67.8464 57.9219 67.8984C57.7656 67.9505 57.5573 67.9766 57.2969 67.9766C57.2188 67.9766 57.1536 67.9766 57.1016 67.9766C56.9714 67.9766 56.8542 67.9766 56.75 67.9766C56.5417 67.9505 56.3984 67.9245 56.3203 67.8984C56.138 67.8464 55.9297 67.7292 55.6953 67.5469C55.4609 67.3646 55.2917 67.1823 55.1875 67C55.1354 66.8958 55.0833 66.6224 55.0312 66.1797C54.9792 65.737 54.9271 65.0469 54.875 64.1094C54.7448 61.9479 54.6536 60.5807 54.6016 60.0078C54.5495 59.4089 54.4974 59.0443 54.4453 58.9141C54.3932 58.8099 54.276 58.7448 54.0938 58.7188C53.8854 58.7188 53.2734 58.7188 52.2578 58.7188C51.6849 58.7188 51.1771 58.7188 50.7344 58.7188C50.3177 58.7448 50.0833 58.7708 50.0312 58.7969C50.0052 58.7969 49.9401 59.0964 49.8359 59.6953C49.7318 60.2943 49.6276 60.9453 49.5234 61.6484C49.4453 62.1432 49.3672 62.612 49.2891 63.0547C49.237 63.4974 49.1979 63.849 49.1719 64.1094C49.0938 64.7083 49.0156 65.2422 48.9375 65.7109C48.8594 66.1797 48.7943 66.4531 48.7422 66.5312C48.5859 66.8698 48.2734 67.1432 47.8047 67.3516C47.362 67.5599 46.9193 67.625 46.4766 67.5469C45.9557 67.4688 45.526 67.2604 45.1875 66.9219C44.875 66.5833 44.7188 66.1927 44.7188 65.75C44.7188 65.6198 44.7318 65.3464 44.7578 64.9297C44.7839 64.5391 44.8229 64.1224 44.875 63.6797C44.9271 63.3411 44.9792 62.9635 45.0312 62.5469C45.0833 62.1042 45.1224 61.6615 45.1484 61.2188C45.2266 60.5938 45.2656 60.0339 45.2656 59.5391C45.2656 59.0443 45.1875 58.8099 45.0312 58.8359C45.0052 58.862 44.9401 58.875 44.8359 58.875C44.7578 58.875 44.6536 58.875 44.5234 58.875C43.7422 58.901 43.2344 58.5495 43 57.8203C42.8958 57.5599 42.8438 57.3125 42.8438 57.0781C42.8438 56.6615 42.974 56.2708 43.2344 55.9062C43.3906 55.75 43.5859 55.6068 43.8203 55.4766C44.0286 55.3464 44.2891 55.2682 44.6016 55.2422C45.0443 55.2161 45.3698 55.1901 45.5781 55.1641C45.7865 55.138 45.9167 55.112 45.9688 55.0859C45.9948 55.0599 46.0339 54.9297 46.0859 54.6953C46.138 54.4609 46.1901 54.2005 46.2422 53.9141C46.3724 52.8984 46.5286 51.8698 46.7109 50.8281C46.9193 49.7865 47.1276 48.7708 47.3359 47.7812C47.7526 45.9062 48.1953 44.2005 48.6641 42.6641C49.1589 41.1276 49.6146 39.9688 50.0312 39.1875C50.3958 38.5365 50.8255 38.0417 51.3203 37.7031C51.8151 37.3385 52.349 37.1432 52.9219 37.1172C52.974 37.1172 53.013 37.1172 53.0391 37.1172C53.1432 37.1172 53.2474 37.1302 53.3516 37.1562C53.4818 37.1562 53.612 37.1693 53.7422 37.1953ZM50.5 54.9688C50.5521 55.0729 50.6693 55.125 50.8516 55.125C50.8776 55.125 50.9297 55.125 51.0078 55.125C51.2682 55.125 51.7109 55.112 52.3359 55.0859C52.8047 55.0599 53.2083 55.0469 53.5469 55.0469C53.8854 55.0208 54.0677 54.9948 54.0938 54.9688C54.0938 54.9688 54.0938 54.9427 54.0938 54.8906C54.0938 54.7083 54.0547 54.2526 53.9766 53.5234C53.8724 52.5859 53.7552 51.5312 53.625 50.3594C53.5208 49.5521 53.4167 48.7708 53.3125 48.0156C53.2083 47.2604 53.1172 46.6094 53.0391 46.0625C52.9609 45.5156 52.8828 45.112 52.8047 44.8516C52.7526 44.5911 52.7005 44.4609 52.6484 44.4609C52.5703 44.487 52.4141 44.9297 52.1797 45.7891C51.9714 46.6745 51.75 47.6771 51.5156 48.7969C51.2031 50.1771 50.9427 51.5182 50.7344 52.8203C50.5781 53.8099 50.5 54.4609 50.5 54.7734C50.5 54.8776 50.5 54.9427 50.5 54.9688ZM74.9531 66.9609C74.1979 66.6484 73.5599 66.2318 73.0391 65.7109C72.5182 65.2161 72.0885 64.5911 71.75 63.8359C71.5156 63.3411 71.3203 62.7943 71.1641 62.1953C70.9818 61.6224 70.8516 60.9583 70.7734 60.2031C70.6432 59.1354 70.5781 57.8073 70.5781 56.2188C70.5781 55.6719 70.5911 55.099 70.6172 54.5C70.6693 52.1302 70.8255 48.888 71.0859 44.7734C71.138 43.8359 71.1901 43.0156 71.2422 42.3125C71.2943 41.6354 71.3333 41.0495 71.3594 40.5547C71.4635 39.4609 71.5677 38.7969 71.6719 38.5625C71.8021 38.3021 72.0104 38.0547 72.2969 37.8203C72.6875 37.5339 73.1042 37.3906 73.5469 37.3906C73.8073 37.3906 74.0807 37.4557 74.3672 37.5859C75.1224 37.8984 75.5651 38.4583 75.6953 39.2656C75.7214 39.4479 75.7083 39.8906 75.6562 40.5938C75.6302 41.3229 75.5781 42.1562 75.5 43.0938C75.4479 43.9792 75.3698 45.1641 75.2656 46.6484C75.1875 48.1068 75.1094 49.4089 75.0312 50.5547C74.901 53.5234 74.849 55.8151 74.875 57.4297C74.9271 59.0443 75.0833 60.2943 75.3438 61.1797C75.5781 62.013 75.8776 62.5469 76.2422 62.7812C76.5807 63.0417 77.1276 63.1198 77.8828 63.0156C78.3776 62.9375 79.0156 62.7682 79.7969 62.5078C80.5781 62.2214 81.3724 61.8828 82.1797 61.4922C82.7005 61.2578 83.0651 61.1146 83.2734 61.0625C83.4818 61.0104 83.7161 60.9974 83.9766 61.0234C84.3672 61.0495 84.6927 61.1406 84.9531 61.2969C85.2135 61.4271 85.4479 61.6484 85.6562 61.9609C85.7604 62.1432 85.8255 62.3125 85.8516 62.4688C85.9036 62.599 85.9297 62.7812 85.9297 63.0156C85.9297 63.0677 85.9167 63.1198 85.8906 63.1719C85.8906 63.8229 85.7083 64.3047 85.3438 64.6172C84.9792 64.9297 84.0938 65.3854 82.6875 65.9844C82.2188 66.1667 81.6979 66.362 81.125 66.5703C80.526 66.7786 80.0443 66.9349 79.6797 67.0391C79.1068 67.1693 78.6771 67.2474 78.3906 67.2734C78.2344 67.2995 78.0521 67.3125 77.8438 67.3125C77.6094 67.3125 77.3229 67.2995 76.9844 67.2734C76.4115 67.2474 75.9948 67.2214 75.7344 67.1953C75.474 67.1432 75.2135 67.0651 74.9531 66.9609ZM97.1797 47.0781C98.2995 47.5729 99.224 48.276 99.9531 49.1875C100.682 50.099 101.19 51.2057 101.477 52.5078C101.685 53.2891 101.789 54.0052 101.789 54.6562C101.789 55.3073 101.685 56.0755 101.477 56.9609C101.242 58.0286 100.917 58.9401 100.5 59.6953C100.109 60.4245 99.5495 61.1406 98.8203 61.8438C97.8307 62.7812 96.6719 63.4062 95.3438 63.7188C94.7969 63.849 94.276 63.901 93.7812 63.875C93.0521 63.875 92.349 63.7448 91.6719 63.4844C90.7083 63.0938 89.875 62.4557 89.1719 61.5703C88.4688 60.6849 87.974 59.6693 87.6875 58.5234C87.5052 57.7161 87.401 56.974 87.375 56.2969C87.375 56.2708 87.375 56.2578 87.375 56.2578C87.375 55.5807 87.4661 54.7865 87.6484 53.875C87.8307 52.9635 88.0521 52.1562 88.3125 51.4531C88.5729 50.724 88.9375 49.9557 89.4062 49.1484C90.1875 47.8464 90.8516 47 91.3984 46.6094C91.763 46.349 92.1667 46.2188 92.6094 46.2188C92.8438 46.2188 93.0911 46.2448 93.3516 46.2969C93.4818 46.349 93.7161 46.388 94.0547 46.4141C94.3672 46.4661 94.6927 46.5182 95.0312 46.5703C95.3177 46.5964 95.5521 46.6224 95.7344 46.6484C95.9167 46.6484 96.0859 46.6745 96.2422 46.7266C96.3984 46.7526 96.5417 46.7917 96.6719 46.8438C96.8281 46.8958 96.9974 46.974 97.1797 47.0781ZM93.625 50.7891C93.4167 50.8411 93.1693 51.1667 92.8828 51.7656C92.5964 52.3646 92.3359 53.0286 92.1016 53.7578C91.9974 54.1484 91.9062 54.5391 91.8281 54.9297C91.75 55.2943 91.7109 55.6198 91.7109 55.9062C91.7109 56.0104 91.7109 56.1016 91.7109 56.1797C91.7109 57.3516 91.9844 58.263 92.5312 58.9141C92.9479 59.3568 93.4167 59.5781 93.9375 59.5781C94.1979 59.5781 94.4714 59.526 94.7578 59.4219C95.487 59.1354 96.112 58.5755 96.6328 57.7422C97.1536 56.8828 97.4271 55.9714 97.4531 55.0078C97.4531 54.9557 97.4531 54.9036 97.4531 54.8516C97.4531 54.0703 97.3099 53.3411 97.0234 52.6641C96.6849 51.9349 96.2682 51.4401 95.7734 51.1797C95.6693 51.1276 95.5521 51.0755 95.4219 51.0234C95.2917 50.9714 95.1484 50.9323 94.9922 50.9062C94.7057 50.8281 94.4323 50.7891 94.1719 50.7891C94.0677 50.763 93.9766 50.75 93.8984 50.75C93.7682 50.75 93.6771 50.763 93.625 50.7891ZM108.469 65.9844C108.182 65.8281 107.935 65.6198 107.727 65.3594C107.518 65.0729 107.401 64.7865 107.375 64.5C107.349 64.3698 107.336 64.0052 107.336 63.4062C107.336 62.8073 107.336 62.1432 107.336 61.4141C107.362 60.6849 107.388 59.5911 107.414 58.1328C107.44 56.6745 107.453 55.2943 107.453 53.9922C107.453 52.6641 107.466 51.2969 107.492 49.8906C107.518 48.4844 107.531 47.4557 107.531 46.8047C107.557 46.1797 107.557 45.6198 107.531 45.125C107.531 44.6562 107.518 44.4089 107.492 44.3828C107.492 44.3568 107.193 44.3307 106.594 44.3047C105.995 44.3047 105.578 44.3177 105.344 44.3438C104.615 44.3698 104.055 44.2786 103.664 44.0703C103.247 43.862 102.948 43.5104 102.766 43.0156C102.661 42.7292 102.609 42.4557 102.609 42.1953C102.609 41.9089 102.661 41.6354 102.766 41.375C102.974 40.8542 103.326 40.4896 103.82 40.2812C103.924 40.2292 104.419 40.1771 105.305 40.125C106.19 40.0729 106.932 40.0208 107.531 39.9688C109.042 39.8906 110.357 39.8125 111.477 39.7344C112.622 39.6823 113.99 39.5391 115.578 39.3047C116.802 39.1224 117.596 39.0182 117.961 38.9922C118.039 38.9922 118.117 38.9922 118.195 38.9922C118.43 38.9922 118.638 39.0182 118.82 39.0703C119.263 39.2526 119.615 39.5391 119.875 39.9297C120.083 40.2422 120.188 40.6068 120.188 41.0234C120.188 41.1016 120.188 41.1797 120.188 41.2578C120.161 41.7005 120.044 42.0651 119.836 42.3516C119.628 42.6641 119.341 42.8984 118.977 43.0547C118.794 43.1328 118.117 43.25 116.945 43.4062C115.773 43.5625 114.641 43.7057 113.547 43.8359C113.156 43.862 112.818 43.901 112.531 43.9531C112.245 44.0052 112.076 44.0443 112.023 44.0703C111.945 44.1484 111.88 44.7865 111.828 45.9844C111.802 47.1823 111.776 49.5911 111.75 53.2109C111.724 54.9557 111.711 56.4531 111.711 57.7031C111.685 58.9271 111.672 59.9688 111.672 60.8281C111.646 62.8073 111.607 63.9661 111.555 64.3047C111.503 64.6693 111.411 64.9688 111.281 65.2031C110.995 65.6979 110.578 66.0234 110.031 66.1797C109.823 66.2318 109.628 66.2578 109.445 66.2578C109.107 66.2578 108.781 66.1667 108.469 65.9844ZM142.375 47.0781C143.495 47.5729 144.419 48.276 145.148 49.1875C145.878 50.099 146.385 51.2057 146.672 52.5078C146.88 53.2891 146.984 54.0052 146.984 54.6562C146.984 55.3073 146.88 56.0755 146.672 56.9609C146.438 58.0286 146.112 58.9401 145.695 59.6953C145.305 60.4245 144.745 61.1406 144.016 61.8438C143.026 62.7812 141.867 63.4062 140.539 63.7188C139.992 63.849 139.471 63.901 138.977 63.875C138.247 63.875 137.544 63.7448 136.867 63.4844C135.904 63.0938 135.07 62.4557 134.367 61.5703C133.664 60.6849 133.169 59.6693 132.883 58.5234C132.701 57.7161 132.596 56.974 132.57 56.2969C132.57 56.2708 132.57 56.2578 132.57 56.2578C132.57 55.5807 132.661 54.7865 132.844 53.875C133.026 52.9635 133.247 52.1562 133.508 51.4531C133.768 50.724 134.133 49.9557 134.602 49.1484C135.383 47.8464 136.047 47 136.594 46.6094C136.958 46.349 137.362 46.2188 137.805 46.2188C138.039 46.2188 138.286 46.2448 138.547 46.2969C138.677 46.349 138.911 46.388 139.25 46.4141C139.562 46.4661 139.888 46.5182 140.227 46.5703C140.513 46.5964 140.747 46.6224 140.93 46.6484C141.112 46.6484 141.281 46.6745 141.438 46.7266C141.594 46.7526 141.737 46.7917 141.867 46.8438C142.023 46.8958 142.193 46.974 142.375 47.0781ZM138.82 50.7891C138.612 50.8411 138.365 51.1667 138.078 51.7656C137.792 52.3646 137.531 53.0286 137.297 53.7578C137.193 54.1484 137.102 54.5391 137.023 54.9297C136.945 55.2943 136.906 55.6198 136.906 55.9062C136.906 56.0104 136.906 56.1016 136.906 56.1797C136.906 57.3516 137.18 58.263 137.727 58.9141C138.143 59.3568 138.612 59.5781 139.133 59.5781C139.393 59.5781 139.667 59.526 139.953 59.4219C140.682 59.1354 141.307 58.5755 141.828 57.7422C142.349 56.8828 142.622 55.9714 142.648 55.0078C142.648 54.9557 142.648 54.9036 142.648 54.8516C142.648 54.0703 142.505 53.3411 142.219 52.6641C141.88 51.9349 141.464 51.4401 140.969 51.1797C140.865 51.1276 140.747 51.0755 140.617 51.0234C140.487 50.9714 140.344 50.9323 140.188 50.9062C139.901 50.8281 139.628 50.7891 139.367 50.7891C139.263 50.763 139.172 50.75 139.094 50.75C138.964 50.75 138.872 50.763 138.82 50.7891ZM149.992 69.1875C149.732 69.0312 149.51 68.8359 149.328 68.6016C149.12 68.3411 148.99 68.1068 148.938 67.8984C148.859 67.5859 148.794 67.026 148.742 66.2188C148.69 65.4115 148.651 64.4479 148.625 63.3281C148.573 61.2188 148.547 58.7839 148.547 56.0234C148.547 53.237 148.599 50.6328 148.703 48.2109C148.729 47.3255 148.755 46.5703 148.781 45.9453C148.807 45.2943 148.82 44.7474 148.82 44.3047C148.872 42.9505 148.859 42.2083 148.781 42.0781C148.703 41.974 148.547 41.8568 148.312 41.7266C147.792 41.4661 147.427 41.1146 147.219 40.6719C147.062 40.3854 146.984 40.0729 146.984 39.7344C146.984 39.5781 147.01 39.4219 147.062 39.2656C147.089 39.0312 147.219 38.7578 147.453 38.4453C147.688 38.1589 147.922 37.9505 148.156 37.8203C148.26 37.7682 148.521 37.7031 148.938 37.625C149.328 37.5729 149.836 37.4948 150.461 37.3906C151.607 37.2344 153.013 37.0651 154.68 36.8828C156.346 36.7005 158.026 36.5443 159.719 36.4141C160.943 36.3359 161.698 36.2969 161.984 36.2969C162.01 36.2969 162.023 36.2969 162.023 36.2969C162.31 36.2969 162.583 36.349 162.844 36.4531C163.234 36.6354 163.534 36.8698 163.742 37.1562C163.924 37.4688 164.029 37.8464 164.055 38.2891C164.081 38.3932 164.094 38.4974 164.094 38.6016C164.094 38.7578 164.081 38.888 164.055 38.9922C164.029 39.1224 163.938 39.3047 163.781 39.5391C163.547 39.9036 163.26 40.1641 162.922 40.3203C162.583 40.4505 162.01 40.5417 161.203 40.5938C158.911 40.776 157.049 40.9453 155.617 41.1016C154.211 41.2318 153.456 41.3359 153.352 41.4141C153.326 41.4141 153.286 41.8177 153.234 42.625C153.182 43.4323 153.13 44.3568 153.078 45.3984C153.026 46.6745 152.987 47.8854 152.961 49.0312C152.935 50.1771 152.935 50.776 152.961 50.8281C152.987 50.8281 153.117 50.8151 153.352 50.7891C153.612 50.763 153.911 50.724 154.25 50.6719C155.214 50.4635 155.904 50.3854 156.32 50.4375C156.737 50.4896 157.115 50.6719 157.453 50.9844C157.688 51.2188 157.857 51.4531 157.961 51.6875C158.065 51.8958 158.117 52.1562 158.117 52.4688C158.117 52.8073 158.078 53.0938 158 53.3281C157.922 53.5625 157.779 53.7839 157.57 53.9922C157.336 54.2266 157.102 54.3828 156.867 54.4609C156.659 54.5391 156.06 54.6823 155.07 54.8906C154.576 54.9948 154.12 55.099 153.703 55.2031C153.312 55.3073 153.078 55.3854 153 55.4375C152.922 55.4635 152.818 55.5156 152.688 55.5938C152.714 56.401 152.74 57.599 152.766 59.1875C152.792 60.1771 152.831 61.2578 152.883 62.4297C152.909 63.6016 152.948 64.526 153 65.2031C153.026 65.8542 153.052 66.4531 153.078 67C153.078 67.5208 153.065 67.8203 153.039 67.8984C152.987 68.1068 152.844 68.3542 152.609 68.6406C152.349 68.9271 152.115 69.1224 151.906 69.2266C151.698 69.3307 151.411 69.3828 151.047 69.3828C150.995 69.3828 150.956 69.3828 150.93 69.3828C150.513 69.3828 150.201 69.3177 149.992 69.1875Z" fill="black"/>
<path d="M20.7741 89.4999C-3.62591 53.0999 1.5001 34.5 41.0001 22C141.833 -0.666683 184.089 -12 180.089 36.5C169.68 162.712 23.0298 78.5 6.86311 47C0.863097 36.5 1.87407 25.3999 16.2741 10.9999" stroke="#FF0000" stroke-width="5" stroke-linecap="round"/>
</svg>
