<svg width="22" height="21" viewBox="0 0 22 21" fill="none" xmlns="http://www.w3.org/2000/svg">
<path d="M18.1249 5.23507C17.5844 4.85732 16.7697 4.92976 16.2844 5.33051L16.841 4.52154C17.2889 3.88275 17.1285 3.19164 16.4891 2.74316C15.8497 2.29641 14.038 3.49752 14.038 3.49752C14.4899 2.85241 14.4054 2.0348 13.7603 1.58231C13.1152 1.13153 12.2252 1.28735 11.7732 1.93361L5.78207 10.3971L6.54563 17.7998L12.918 15.4758L18.4762 7.23481C18.9321 6.58567 18.7746 5.69044 18.1249 5.23507Z" fill="#90603E"/>
<path d="M20.7934 9.0749C20.7934 9.0749 21.4443 8.12621 20.495 7.47592C19.5469 6.82563 18.8966 7.77375 18.8966 7.77375L15.8775 12.1768C15.7734 12.0032 15.6596 11.8319 15.5325 11.6628L19.7229 5.55265C19.7229 5.55265 20.3731 4.60453 19.4245 3.95425C18.4763 3.30396 17.826 4.25208 17.826 4.25208L13.8846 10C13.738 9.88043 13.588 9.76026 13.4333 9.6424L18.0026 2.97795C18.0026 2.97795 18.6528 2.02983 17.7042 1.37954C16.756 0.729257 16.1057 1.67738 16.1057 1.67738L11.5365 8.34067C11.3686 8.23775 11.2024 8.14863 11.0357 8.05434L15.3065 1.82629C15.3065 1.82629 15.9568 0.878174 15.0087 0.227886C14.0606 -0.422402 13.4103 0.525719 13.4103 0.525719L8.89451 7.11139L8.208 8.11298C11.0529 10.0644 11.3237 13.7356 9.69831 16.1062C9.37346 16.5805 8.89911 16.2557 8.89911 16.2557C10.85 13.4102 10.2543 10.2128 7.40879 8.2619L8.24767 4.06349C8.24767 4.06349 8.56103 2.95725 7.45537 2.64332C6.34913 2.32997 6.0352 3.4362 6.0352 3.4362L5.06638 6.31334C4.6823 7.45407 4.2735 8.59078 3.73245 9.66597C2.20477 12.7018 3.11724 16.4747 5.99782 18.4509C9.14002 20.6053 13.4356 19.8044 15.5906 16.6627L20.7934 9.0749Z" fill="#AF7E57"/>
<path d="M14.0201 18.399C16.32 18.399 18.644 16.0749 18.644 13.7751C18.644 13.4571 18.8769 13.2001 19.1948 13.2001C19.5128 13.2001 19.7939 13.4571 19.7939 13.7751C19.7939 17.2249 17.4699 19.5489 14.0201 19.5489C13.7022 19.5489 13.4452 19.2677 13.4452 18.9498C13.4452 18.6318 13.7022 18.399 14.0201 18.399Z" fill="#5DADEC"/>
<path d="M16.8952 19.5247C18.6201 19.5247 19.77 18.3748 19.77 16.6499C19.77 16.3319 20.027 16.0749 20.345 16.0749C20.6629 16.0749 20.9199 16.3319 20.9199 16.6499C20.9199 18.9498 19.195 20.6747 16.8952 20.6747C16.5772 20.6747 16.3202 20.4177 16.3202 20.0997C16.3202 19.7817 16.5772 19.5247 16.8952 19.5247ZM7.12072 1.12579C7.4381 1.12579 7.69568 1.38338 7.69568 1.70076C7.69568 2.01814 7.4381 2.27573 7.12072 2.27573C4.82085 2.27573 2.52098 4.33928 2.52098 6.87546C2.52098 7.19284 2.2634 7.45043 1.94601 7.45043C1.62863 7.45043 1.37105 7.19284 1.37105 6.87546C1.37105 3.7051 3.67091 1.12579 7.12072 1.12579Z" fill="#5DADEC"/>
<path d="M4.24583 0C4.56322 0 4.8208 0.233437 4.8208 0.550818C4.8208 0.8682 4.56322 1.14993 4.24583 1.14993C2.52093 1.14993 1.39515 2.42923 1.39515 4.00062C1.39515 4.318 1.11399 4.57559 0.796033 4.57559C0.478076 4.57559 0.245214 4.318 0.245214 4.00062C0.245214 1.79447 1.94597 0 4.24583 0Z" fill="#5DADEC"/>
</svg>
