<svg width="375" height="384" viewBox="0 0 375 384" fill="none" xmlns="http://www.w3.org/2000/svg">
<g clip-path="url(#clip0)">
<path d="M134.492 141.562L133.553 140.901L133.66 140.773L134.598 141.413L134.492 141.562Z" fill="#FC0048"/>
<path d="M245.84 218.878L243.984 217.578L244.091 217.429L245.946 218.729L245.84 218.878ZM242.108 216.277L240.253 214.976L240.36 214.827L242.215 216.128L242.108 216.277ZM238.398 213.676L236.543 212.375L236.649 212.226L238.505 213.526L238.398 213.676ZM234.688 211.074L232.833 209.774L232.939 209.624L234.794 210.925L234.688 211.074ZM230.978 208.452L229.123 207.151L229.229 207.002L231.084 208.302L230.978 208.452ZM227.246 205.85L225.391 204.55L225.498 204.4L227.353 205.701L227.246 205.85ZM223.536 203.249L221.681 201.948L221.788 201.799L223.643 203.1L223.536 203.249ZM219.826 200.648L217.971 199.347L218.077 199.198L219.932 200.498L219.826 200.648ZM216.094 198.025L214.239 196.724L214.346 196.575L216.201 197.876L216.094 198.025ZM212.384 195.424L210.529 194.123L210.636 193.974L212.491 195.274L212.384 195.424ZM208.674 192.822L206.819 191.521L206.926 191.372L208.781 192.673L208.674 192.822ZM204.964 190.221L203.109 188.92L203.216 188.771L205.071 190.072L204.964 190.221ZM201.233 187.598L199.377 186.297L199.484 186.148L201.339 187.449L201.233 187.598ZM197.522 184.997L195.667 183.696L195.774 183.547L197.629 184.847L197.522 184.997ZM193.812 182.395L191.957 181.095L192.064 180.945L193.919 182.246L193.812 182.395ZM190.081 179.794L188.226 178.493L188.332 178.344L190.187 179.645L190.081 179.794ZM186.371 177.171L184.516 175.871L184.622 175.721L186.477 177.022L186.371 177.171ZM182.66 174.57L180.805 173.269L180.912 173.12L182.767 174.421L182.66 174.57ZM178.95 171.969L177.095 170.668L177.202 170.519L179.057 171.819L178.95 171.969ZM175.219 169.367L173.364 168.067L173.47 167.917L175.325 169.218L175.219 169.367ZM171.509 166.745L169.654 165.444L169.76 165.295L171.615 166.595L171.509 166.745ZM167.799 164.143L165.943 162.842L166.05 162.693L167.905 163.994L167.799 164.143ZM164.067 161.542L162.212 160.241L162.319 160.092L164.174 161.393L164.067 161.542ZM160.357 158.94L158.502 157.64L158.608 157.491L160.464 158.791L160.357 158.94ZM156.647 156.318L154.792 155.017L154.898 154.868L156.753 156.168L156.647 156.318ZM152.915 153.716L151.06 152.416L151.167 152.266L153.022 153.567L152.915 153.716ZM149.205 151.115L147.35 149.814L147.457 149.665L149.312 150.966L149.205 151.115ZM145.495 148.514L143.64 147.213L143.747 147.064L145.602 148.364L145.495 148.514ZM141.785 145.912L139.93 144.612L140.036 144.462L141.892 145.763L141.785 145.912ZM138.053 143.29L136.198 141.989L136.305 141.84L138.16 143.14L138.053 143.29Z" fill="#FC0048"/>
<path d="M141.475 279.322L139.619 278.021L139.726 277.872L141.581 279.172L141.475 279.322ZM137.743 276.72L135.888 275.419L135.995 275.27L137.85 276.571L137.743 276.72ZM134.033 274.119L132.178 272.818L132.284 272.669L134.14 273.97L134.033 274.119ZM130.323 271.517L128.468 270.217L128.574 270.067L130.429 271.368L130.323 271.517ZM126.613 268.895L124.758 267.594L124.864 267.445L126.719 268.745L126.613 268.895ZM122.881 266.293L121.026 264.993L121.133 264.843L122.988 266.144L122.881 266.293ZM119.171 263.692L117.316 262.391L117.423 262.242L119.278 263.543L119.171 263.692ZM115.461 261.091L113.606 259.79L113.712 259.641L115.567 260.941L115.461 261.091ZM111.729 258.468L109.874 257.167L109.981 257.018L111.836 258.319L111.729 258.468ZM108.019 255.867L106.164 254.566L106.271 254.417L108.126 255.717L108.019 255.867ZM104.309 253.265L102.454 251.965L102.561 251.815L104.416 253.116L104.309 253.265ZM100.599 250.664L98.7439 249.363L98.8505 249.214L100.706 250.515L100.599 250.664ZM96.8675 248.041L95.0124 246.74L95.119 246.591L96.9741 247.892L96.8675 248.041ZM93.1574 245.44L91.3023 244.139L91.4089 243.99L93.264 245.291L93.1574 245.44ZM89.4472 242.838L87.5921 241.538L87.6988 241.388L89.5538 242.689L89.4472 242.838ZM85.7157 240.237L83.8607 238.936L83.9673 238.787L85.8224 240.088L85.7157 240.237ZM82.0056 237.614L80.1505 236.314L80.2571 236.164L82.1122 237.465L82.0056 237.614ZM78.2955 235.013L76.4404 233.712L76.547 233.563L78.4021 234.864L78.2955 235.013ZM74.5853 232.412L72.7303 231.111L72.8369 230.962L74.6919 232.262L74.5853 232.412ZM70.8538 229.81L68.9988 228.51L69.1054 228.36L70.9605 229.661L70.8538 229.81ZM67.1437 227.188L65.2886 225.887L65.3952 225.738L67.2503 227.038L67.1437 227.188ZM63.4336 224.586L61.5785 223.286L61.6851 223.136L63.5402 224.437L63.4336 224.586ZM59.7021 221.985L57.847 220.684L57.9536 220.535L59.8087 221.836L59.7021 221.985ZM55.992 219.383L54.1369 218.083L54.2435 217.934L56.0986 219.234L55.992 219.383ZM52.2818 216.761L50.4267 215.46L50.5333 215.311L52.3884 216.612L52.2818 216.761ZM48.5503 214.159L46.6953 212.859L46.8019 212.709L48.657 214.01L48.5503 214.159ZM44.8402 211.558L42.9851 210.257L43.0917 210.108L44.9468 211.409L44.8402 211.558ZM41.1301 208.957L39.275 207.656L39.3816 207.507L41.2367 208.807L41.1301 208.957ZM37.4199 206.355L35.5648 205.055L35.6714 204.905L37.5265 206.206L37.4199 206.355ZM33.6884 203.733L31.8334 202.432L31.94 202.283L33.7951 203.583L33.6884 203.733Z" fill="#FC0048"/>
<path d="M247.94 220.944L247.842 221.084L248.785 221.745L248.883 221.605L247.94 220.944Z" fill="#FC0048"/>
<path d="M32.9103 202.247L32.8677 202.183L135.622 142.863L135.664 142.927L32.9103 202.247Z" fill="#FF0049"/>
<path d="M33.1875 202.503H32.3986L32.8037 201.82L33.1875 202.503Z" fill="#FF0049"/>
<path d="M135.749 143.29L136.133 142.607H135.344L135.749 143.29Z" fill="#FF0049"/>
<path d="M38.3499 211.88L37.3529 212.456L37.4382 212.604L38.4352 212.028L38.3499 211.88Z" fill="#FC0048"/>
<path d="M40.4159 210.904L40.3306 210.754L42.3136 209.603L42.3989 209.752L40.4159 210.904ZM44.3605 208.601L44.2753 208.452L46.2583 207.3L46.3436 207.449L44.3605 208.601ZM48.3266 206.319L48.2413 206.17L50.2243 205.019L50.3096 205.168L48.3266 206.319ZM52.2926 204.038L52.2073 203.889L54.1903 202.737L54.2756 202.886L52.2926 204.038ZM56.2373 201.756L56.152 201.607L58.135 200.456L58.2203 200.605L56.2373 201.756ZM60.2033 199.453L60.118 199.304L62.101 198.153L62.1863 198.302L60.2033 199.453ZM64.1693 197.172L64.084 197.023L66.067 195.871L66.1523 196.02L64.1693 197.172ZM68.1353 194.89L68.05 194.741L70.033 193.59L70.1183 193.739L68.1353 194.89ZM72.08 192.609L71.9947 192.46L73.9777 191.308L74.063 191.457L72.08 192.609ZM76.046 190.327L75.9607 190.178L77.9437 189.027L78.029 189.176L76.046 190.327ZM80.012 188.024L79.9268 187.875L81.9098 186.724L81.995 186.873L80.012 188.024ZM83.9567 185.743L83.8714 185.594L85.8545 184.442L85.9397 184.592L83.9567 185.743ZM87.9227 183.461L87.8375 183.312L89.8205 182.161L89.9058 182.31L87.9227 183.461ZM91.8888 181.18L91.8035 181.031L93.7865 179.879L93.8718 180.028L91.8888 181.18ZM95.8335 178.898L95.7482 178.749L97.7312 177.598L97.8165 177.747L95.8335 178.898ZM99.7995 176.596L99.7142 176.446L101.697 175.295L101.782 175.444L99.7995 176.596ZM103.765 174.314L103.68 174.165L105.663 173.013L105.748 173.163L103.765 174.314ZM107.732 172.032L107.646 171.883L109.629 170.732L109.715 170.881L107.732 172.032ZM111.676 169.751L111.591 169.602L113.574 168.45L113.659 168.6L111.676 169.751ZM115.642 167.448L115.557 167.299L117.54 166.147L117.625 166.297L115.642 167.448ZM119.608 165.167L119.523 165.017L121.506 163.866L121.591 164.015L119.608 165.167ZM123.553 162.885L123.468 162.736L125.451 161.584L125.536 161.734L123.553 162.885ZM127.519 160.604L127.434 160.454L129.417 159.303L129.502 159.452L127.519 160.604ZM131.485 158.322L131.4 158.173L133.383 157.021L133.468 157.171L131.485 158.322ZM135.43 156.019L135.344 155.87L137.327 154.718L137.413 154.868L135.43 156.019ZM139.396 153.738L139.31 153.588L141.293 152.437L141.379 152.586L139.396 153.738ZM143.362 151.456L143.276 151.307L145.259 150.155L145.345 150.305L143.362 151.456ZM147.306 149.175L147.221 149.025L149.204 147.874L149.289 148.023L147.306 149.175ZM151.272 146.893L151.187 146.744L153.17 145.592L153.255 145.742L151.272 146.893Z" fill="#FC0048"/>
<path d="M156.136 143.871L155.139 144.447L155.224 144.595L156.221 144.019L156.136 143.871Z" fill="#FC0048"/>
<path d="M218.844 200.626L115.109 260.5L42.6761 209.71L146.411 149.814L218.844 200.626Z" fill="#F7F7F7"/>
<path d="M115.109 260.607L115.067 260.585L42.5056 209.688L42.6122 209.624L146.39 149.708L146.432 149.729L218.972 200.605L115.109 260.607ZM42.8255 209.71L115.109 260.415L218.673 200.626L146.39 149.921L42.8255 209.71Z" fill="white"/>
<path d="M236.137 212.759L132.402 272.633L115.109 260.5L218.844 200.626L236.137 212.759Z" fill="#E5E5E5"/>
<path d="M132.402 272.697L132.381 272.675L115.024 260.5L115.088 260.458L218.844 200.562L218.865 200.584L236.222 212.759L236.158 212.801L132.402 272.697ZM115.195 260.522L132.423 272.59L236.073 212.737L218.844 200.669L115.195 260.522Z" fill="white"/>
<path d="M162.574 135.827L58.8392 195.722L43.103 184.656L146.816 124.76L162.574 135.827Z" fill="#9B9B9B"/>
<path d="M58.8388 195.765L43.0173 184.655L43.0813 184.634L146.837 124.739L146.859 124.76L162.659 135.848L162.595 135.869L58.8388 195.765ZM43.1666 184.655L58.8601 195.658L162.51 135.805L146.816 124.803L43.1666 184.655Z" fill="white"/>
<path d="M143.66 194.059L149.78 204.656C150.782 206.405 153 207.002 154.748 205.978L164.62 200.285C167.371 198.686 166.902 194.592 163.874 193.654L147.903 188.749C144.705 187.79 141.997 191.202 143.66 194.059Z" fill="#9B9B9B"/>
<path d="M161.187 192.076L164.578 197.961C165.132 198.92 166.369 199.262 167.328 198.707L172.808 195.551C174.344 194.677 174.088 192.396 172.382 191.863L163.512 189.133C161.785 188.6 160.271 190.498 161.187 192.076Z" fill="#9B9B9B"/>
<path d="M63.8771 188.297C64.5397 186.383 62.3793 183.898 59.0519 182.746C55.7245 181.594 52.49 182.212 51.8274 184.126C51.1649 186.04 53.3252 188.526 56.6526 189.677C59.9801 190.829 63.2146 190.211 63.8771 188.297Z" fill="white"/>
<path d="M119.587 219.134L92.9338 234.529C91.9529 235.105 90.0978 234.828 88.8398 233.932L88.4773 233.677C87.198 232.781 86.9634 231.587 87.9442 231.033L114.576 215.659C115.557 215.083 117.412 215.36 118.67 216.256L119.033 216.512C120.333 217.386 120.568 218.58 119.587 219.134Z" fill="#9B9B9B"/>
<path d="M91.633 234.849C90.7161 234.849 89.65 234.529 88.8184 233.954L88.4559 233.698C87.7096 233.186 87.2832 232.525 87.3045 231.928C87.3258 231.523 87.539 231.203 87.9228 230.968L114.555 215.595C115.557 215.019 117.412 215.275 118.691 216.192L119.054 216.448C119.8 216.959 120.227 217.62 120.205 218.217C120.184 218.622 119.971 218.942 119.587 219.177L92.955 234.551C92.5925 234.764 92.1234 234.849 91.633 234.849ZM115.898 215.381C115.408 215.381 114.939 215.467 114.597 215.68L87.9655 231.054C87.603 231.267 87.3898 231.565 87.3898 231.928C87.3684 232.482 87.7736 233.122 88.4985 233.634L88.861 233.89C90.1191 234.785 91.9315 235.041 92.9123 234.487L119.544 219.113C119.907 218.9 120.12 218.601 120.12 218.217C120.141 217.663 119.736 217.023 119.011 216.512L118.649 216.256C117.839 215.68 116.794 215.381 115.898 215.381Z" fill="white"/>
<path d="M285.029 61.9862L251.937 81.0913L246.947 77.5944L280.04 58.4893L285.029 61.9862Z" fill="#F7F7F7"/>
<path d="M251.937 81.1979L251.894 81.1553L246.798 77.5731L280.061 58.3614L280.104 58.404L285.2 61.9862L251.937 81.1979ZM247.118 77.6157L251.958 81.006L284.88 61.9862L280.04 58.5959L247.118 77.6157Z" fill="white"/>
<path d="M293.495 67.9139L260.402 87.0403L255.412 83.5221L288.505 64.417L293.495 67.9139Z" fill="#F7F7F7"/>
<path d="M260.38 87.1469L260.338 87.1043L255.242 83.5221L288.505 64.3104L288.548 64.353L293.644 67.9352L260.38 87.1469ZM255.562 83.5434L260.402 86.9337L293.324 67.9139L288.484 64.5236L255.562 83.5434Z" fill="white"/>
<path d="M301.938 73.8629L268.846 92.968L263.856 89.4711L296.949 70.3447L301.938 73.8629Z" fill="#F7F7F7"/>
<path d="M268.846 93.0747L268.803 93.032L263.707 89.4498L296.97 70.2381L297.013 70.2807L302.109 73.8629L268.846 93.0747ZM264.027 89.4711L268.846 92.8614L301.768 73.8416L296.928 70.4513L264.027 89.4711Z" fill="white"/>
<path d="M310.126 79.5774L256.948 110.282L251.958 106.785L305.137 76.0805L310.126 79.5774Z" fill="#F7F7F7"/>
<path d="M256.948 110.389L251.809 106.785L251.915 106.721L305.137 75.9952L310.276 79.5987L310.169 79.6627L256.948 110.389ZM252.107 106.785L256.948 110.175L309.956 79.5774L305.116 76.1871L252.107 106.785Z" fill="white"/>
<path d="M318.293 85.3132L265.114 116.018L260.125 112.5L313.303 81.8163L318.293 85.3132Z" fill="#F7F7F7"/>
<path d="M265.114 116.103L259.975 112.5L260.082 112.436L313.303 81.7097L318.442 85.3132L318.335 85.3772L265.114 116.103ZM260.295 112.521L265.135 115.911L318.144 85.3132L313.303 81.9229L260.295 112.521Z" fill="white"/>
<path d="M326.46 91.049L273.302 121.732L268.291 118.235L321.47 87.5521L326.46 91.049Z" fill="#F7F7F7"/>
<path d="M273.281 121.839L268.142 118.235L268.249 118.171L321.47 87.4455L326.609 91.049L326.502 91.113L273.281 121.839ZM268.462 118.257L273.302 121.647L326.31 91.049L321.47 87.6587L268.462 118.257Z" fill="white"/>
<path d="M334.626 96.7848L281.469 127.468L276.479 123.971L329.637 93.2665L334.626 96.7848Z" fill="#F7F7F7"/>
<path d="M281.447 127.575L276.309 123.971L276.415 123.907L329.637 93.1813L334.775 96.7848L334.669 96.8488L281.447 127.575ZM276.628 123.971L281.469 127.362L334.477 96.7635L329.637 93.3732L276.628 123.971Z" fill="white"/>
<path d="M316.225 117.852L289.635 133.204L284.646 129.707L311.214 114.355L316.225 117.852Z" fill="#F7F7F7"/>
<path d="M289.635 133.268L289.614 133.247L284.539 129.686L284.624 129.643L311.235 114.269L316.331 117.852L316.246 117.894L289.635 133.268ZM284.752 129.707L289.635 133.14L316.097 117.852L311.214 114.419L284.752 129.707Z" fill="white"/>
<path d="M381.344 129.536L328.187 160.241L323.197 156.744L376.355 126.039L381.344 129.536Z" fill="#F7F7F7"/>
<path d="M328.187 160.348L328.144 160.326L323.048 156.744L376.376 125.954L381.515 129.558L381.408 129.622L328.187 160.348ZM323.346 156.744L328.187 160.134L381.195 129.536L376.355 126.146L323.346 156.744Z" fill="white"/>
<path d="M389.511 135.272L336.353 165.977L331.364 162.48L384.521 131.775L389.511 135.272Z" fill="#F7F7F7"/>
<path d="M336.353 166.062L336.311 166.041L331.214 162.459L384.542 131.669L389.681 135.272L336.353 166.062ZM331.513 162.48L336.353 165.87L389.361 135.272L384.521 131.882L331.513 162.48Z" fill="white"/>
<path d="M397.698 141.008L344.52 171.713L339.53 168.194L392.709 137.511L397.698 141.008Z" fill="#F7F7F7"/>
<path d="M344.52 171.798L344.477 171.777L339.381 168.194L392.709 137.404L392.752 137.426L397.848 141.008L344.52 171.798ZM339.701 168.216L344.541 171.606L397.549 141.008L392.709 137.618L339.701 168.216Z" fill="white"/>
<path d="M379.276 162.075L352.686 177.427L347.697 173.93L374.286 158.578L379.276 162.075Z" fill="#F7F7F7"/>
<path d="M352.686 177.512L352.665 177.491L347.59 173.93L347.676 173.888L374.286 158.514L374.308 158.535L379.382 162.096L379.297 162.139L352.686 177.512ZM347.825 173.93L352.708 177.363L379.169 162.075L374.286 158.642L347.825 173.93Z" fill="white"/>
<path d="M116.495 234.081L103.36 241.651C102.294 242.269 100.311 241.971 98.9253 241.011C97.5607 240.052 97.3048 238.751 98.3496 238.154L111.484 230.585C112.551 229.966 114.534 230.265 115.92 231.224C117.305 232.184 117.561 233.463 116.495 234.081Z" fill="#9B9B9B"/>
<path d="M101.953 242.013C100.972 242.013 99.8209 241.672 98.9253 241.054C98.1151 240.5 97.6673 239.775 97.6886 239.156C97.7099 238.73 97.9445 238.389 98.3496 238.133L111.484 230.563C112.55 229.945 114.555 230.222 115.941 231.203C116.751 231.757 117.199 232.482 117.178 233.101C117.156 233.527 116.922 233.868 116.517 234.124L116.495 234.103L116.517 234.124L103.382 241.694C102.998 241.907 102.508 242.013 101.953 242.013ZM112.934 230.286C112.401 230.286 111.911 230.393 111.527 230.606L98.3922 238.175C97.9871 238.41 97.7739 238.751 97.7526 239.135C97.7312 239.732 98.179 240.436 98.968 240.99C100.333 241.949 102.316 242.227 103.36 241.63L116.495 234.06C116.9 233.826 117.114 233.484 117.135 233.101C117.156 232.504 116.708 231.8 115.919 231.246C115.045 230.627 113.915 230.286 112.934 230.286Z" fill="white"/>
<path d="M127.952 274.959L126.955 275.535L127.041 275.683L128.038 275.107L127.952 274.959Z" fill="#FC0048"/>
<path d="M130.014 273.955L129.929 273.806L131.912 272.654L131.997 272.803L130.014 273.955ZM133.98 271.673L133.895 271.524L135.878 270.373L135.963 270.522L133.98 271.673ZM137.946 269.392L137.861 269.243L139.844 268.091L139.929 268.24L137.946 269.392ZM141.891 267.11L141.805 266.961L143.788 265.81L143.874 265.959L141.891 267.11ZM145.857 264.807L145.771 264.658L147.754 263.507L147.84 263.656L145.857 264.807ZM149.823 262.526L149.737 262.377L151.72 261.225L151.806 261.374L149.823 262.526ZM153.767 260.244L153.682 260.095L155.665 258.944L155.75 259.093L153.767 260.244ZM157.733 257.963L157.648 257.814L159.631 256.662L159.716 256.811L157.733 257.963ZM161.699 255.66L161.614 255.511L163.597 254.359L163.682 254.509L161.699 255.66ZM165.665 253.378L165.58 253.229L167.563 252.078L167.648 252.227L165.665 253.378ZM169.61 251.097L169.525 250.948L171.508 249.796L171.593 249.946L169.61 251.097ZM173.576 248.815L173.491 248.666L175.474 247.515L175.559 247.664L173.576 248.815ZM177.542 246.534L177.457 246.385L179.44 245.233L179.525 245.382L177.542 246.534ZM181.487 244.231L181.402 244.082L183.385 242.93L183.47 243.08L181.487 244.231ZM185.453 241.95L185.368 241.8L187.351 240.649L187.436 240.798L185.453 241.95ZM189.419 239.668L189.334 239.519L191.317 238.367L191.402 238.517L189.419 239.668ZM193.364 237.386L193.278 237.237L195.261 236.086L195.347 236.235L193.364 237.386ZM197.33 235.105L197.244 234.956L199.227 233.804L199.313 233.954L197.33 235.105ZM201.296 232.802L201.21 232.653L203.193 231.501L203.279 231.651L201.296 232.802ZM205.24 230.521L205.155 230.371L207.138 229.22L207.223 229.369L205.24 230.521ZM209.206 228.239L209.121 228.09L211.104 226.938L211.189 227.088L209.206 228.239ZM213.172 225.958L213.087 225.808L215.07 224.657L215.155 224.806L213.172 225.958ZM217.138 223.655L217.053 223.505L219.036 222.354L219.121 222.503L217.138 223.655ZM221.083 221.373L220.998 221.224L222.981 220.072L223.066 220.222L221.083 221.373ZM225.049 219.092L224.964 218.942L226.947 217.791L227.032 217.94L225.049 219.092ZM229.015 216.81L228.93 216.661L230.913 215.509L230.998 215.659L229.015 216.81ZM232.96 214.529L232.874 214.379L234.857 213.228L234.943 213.377L232.96 214.529ZM236.926 212.226L236.84 212.076L238.823 210.925L238.909 211.074L236.926 212.226ZM240.892 209.944L240.806 209.795L242.789 208.643L242.875 208.793L240.892 209.944Z" fill="#FC0048"/>
<path d="M245.754 206.931L244.756 207.506L244.841 207.653L245.839 207.078L245.754 206.931Z" fill="#FC0048"/>
<path d="M315.926 183.909L272.449 209.006L193.982 153.972L237.459 128.875L315.926 183.909Z" fill="#F7F7F7"/>
<path d="M272.428 209.113L272.385 209.091L193.811 153.972L237.459 128.769L237.501 128.79L316.075 183.909L272.428 209.113ZM194.131 153.993L272.449 208.921L315.755 183.909L237.459 128.982L194.131 153.993Z" fill="white"/>
<path d="M499.728 118.171L439.086 153.205L309.87 62.5619L370.512 27.5501L499.728 118.171Z" fill="#F7F7F7"/>
<path d="M439.065 153.354L439.001 153.311L309.615 62.5619L309.785 62.4553L370.534 27.4008L370.597 27.4435L499.983 118.193L499.813 118.299L439.065 153.354ZM310.105 62.5832L439.086 153.055L499.493 118.171L370.512 27.6994L310.105 62.5832Z" fill="white"/>
<path d="M369.894 122.777L317.717 152.906L295.115 137.042L347.292 106.913L369.894 122.777Z" fill="#F7F7F7"/>
<path d="M317.717 152.97L317.696 152.949L295.009 137.042L295.073 136.999L347.27 106.849L347.292 106.87L369.979 122.777L369.915 122.82L317.717 152.97ZM295.2 137.042L317.717 152.842L369.787 122.777L347.27 106.977L295.2 137.042Z" fill="white"/>
<path d="M332.558 195.573L289.06 220.67L272.45 209.006L315.927 183.91L332.558 195.573Z" fill="#E5E5E5"/>
<path d="M289.06 220.712L289.038 220.691L272.364 208.985L272.428 208.942L315.926 183.824L315.947 183.845L332.622 195.551L332.558 195.594L289.06 220.712ZM272.513 209.006L289.06 220.605L332.472 195.551L315.926 183.952L272.513 209.006Z" fill="white"/>
<path d="M255.787 164.091C257.47 159.228 251.969 152.909 243.5 149.978C235.032 147.046 226.802 148.612 225.118 153.475C223.435 158.339 228.936 164.657 237.405 167.589C245.873 170.52 254.103 168.954 255.787 164.091Z" fill="#9B9B9B"/>
<path d="M245.775 169.09C240.892 169.09 235.262 167.405 230.87 164.335C226.925 161.563 224.644 158.087 224.793 155.017C224.878 152.97 226.008 151.243 228.077 150.07C233.365 147.021 243.216 148.428 250.039 153.226C253.984 155.998 256.265 159.473 256.116 162.544C256.031 164.591 254.901 166.318 252.832 167.491C250.956 168.578 248.482 169.09 245.775 169.09ZM235.135 148.535C232.448 148.535 229.996 149.047 228.119 150.134C226.094 151.307 224.964 152.991 224.878 155.017C224.75 158.045 227.011 161.499 230.934 164.25C237.736 169.026 247.566 170.433 252.811 167.405C254.837 166.233 255.967 164.548 256.052 162.523C256.18 159.495 253.92 156.04 249.996 153.29C245.604 150.219 239.975 148.535 235.135 148.535Z" fill="white"/>
<path d="M364.233 74.546C365.916 69.6828 360.416 63.3642 351.947 60.4328C343.478 57.5014 335.248 59.0674 333.565 63.9306C331.881 68.7937 337.382 75.1125 345.851 78.0438C354.32 80.9752 362.55 79.4092 364.233 74.546Z" fill="#9B9B9B"/>
<path d="M354.222 80.2597C349.189 80.2597 343.39 78.5326 338.891 75.3768C334.69 72.4343 332.345 68.8094 332.494 65.4405C332.6 63.1589 333.88 61.1973 336.14 59.8966C341.641 56.7195 351.855 58.1481 358.891 63.095C363.092 66.0375 365.437 69.6624 365.288 73.0313C365.181 75.3129 363.902 77.2745 361.642 78.5752C359.659 79.7266 357.058 80.2597 354.222 80.2597ZM343.582 59.7047C341.023 59.7047 338.677 60.1951 336.908 61.2186C335.095 62.2634 334.114 63.7347 334.029 65.5044C333.901 68.2977 336.055 71.5174 339.765 74.1188C346.354 78.7458 355.821 80.1531 360.874 77.2319C362.687 76.1871 363.668 74.7158 363.753 72.946C363.881 70.1528 361.727 66.9331 358.017 64.3317C353.752 61.3465 348.273 59.7047 343.582 59.7047Z" fill="#F7F7F7"/>
<path d="M373.787 69.032C375.47 64.1688 369.969 57.8501 361.501 54.9188C353.032 51.9874 344.802 53.5534 343.119 58.4166C341.435 63.2797 346.936 69.5984 355.405 72.5298C363.874 75.4611 372.104 73.8951 373.787 69.032Z" fill="#9B9B9B"/>
<path d="M363.796 74.7372C358.763 74.7372 352.964 73.01 348.465 69.8543C344.264 66.9117 341.918 63.2869 342.068 59.9179C342.174 57.6364 343.454 55.6747 345.714 54.374C351.215 51.1969 361.429 52.6256 368.465 57.5724C372.666 60.5149 375.011 64.1398 374.862 67.5088C374.755 69.7903 373.476 71.752 371.216 73.0527C369.211 74.2041 366.631 74.7372 363.796 74.7372ZM353.134 54.1821C350.575 54.1821 348.23 54.6725 346.46 55.696C344.648 56.7408 343.667 58.2121 343.582 59.9819C343.454 62.7751 345.607 65.9949 349.317 68.5962C355.906 73.2232 365.373 74.6305 370.427 71.7093C372.239 70.6645 373.22 69.1933 373.305 67.4235C373.433 64.6302 371.28 61.4105 367.57 58.8091C363.305 55.824 357.825 54.1821 353.134 54.1821Z" fill="#F7F7F7"/>
<path d="M383.348 63.4978C385.031 58.6347 379.531 52.3159 371.062 49.3846C362.593 46.4532 354.363 48.0193 352.68 52.8824C350.996 57.7456 356.497 64.0642 364.966 66.9956C373.435 69.927 381.665 68.361 383.348 63.4978Z" fill="#9B9B9B"/>
<path d="M373.348 69.2359C368.316 69.2359 362.516 67.5088 358.017 64.353C353.817 61.4105 351.471 57.7856 351.62 54.4167C351.727 52.1351 353.006 50.1734 355.267 48.8728C360.768 45.6957 370.981 47.1243 378.018 52.0712C382.218 55.0137 384.564 58.6385 384.415 62.0075C384.308 64.289 383.029 66.2507 380.768 67.5514C378.785 68.6815 376.184 69.2359 373.348 69.2359ZM362.708 48.6809C360.149 48.6809 357.804 49.1713 356.034 50.1948C354.222 51.2396 353.241 52.7108 353.156 54.4806C353.028 57.2739 355.181 60.4936 358.891 63.095C365.48 67.722 374.947 69.1293 380.001 66.2081C381.813 65.1633 382.794 63.692 382.879 61.9222C383.007 59.129 380.854 55.9092 377.144 53.3079C372.858 50.3227 367.399 48.6809 362.708 48.6809Z" fill="#F7F7F7"/>
<path d="M325.206 142.689C326.223 139.751 322.898 135.933 317.779 134.161C312.66 132.389 307.685 133.334 306.668 136.272C305.652 139.21 308.977 143.028 314.096 144.8C319.215 146.572 324.189 145.627 325.206 142.689Z" fill="#E5E5E5"/>
<path d="M319.146 145.742C316.203 145.742 312.77 144.718 310.126 142.863C307.738 141.179 306.352 139.068 306.438 137.213C306.502 135.955 307.184 134.931 308.421 134.206C311.619 132.351 317.589 133.225 321.726 136.125C324.114 137.81 325.5 139.921 325.415 141.776C325.351 143.034 324.668 144.057 323.432 144.782C322.28 145.422 320.766 145.742 319.146 145.742ZM312.706 133.311C311.086 133.311 309.593 133.63 308.463 134.27C307.248 134.974 306.565 135.997 306.523 137.213C306.438 139.046 307.802 141.115 310.169 142.778C314.284 145.656 320.212 146.509 323.389 144.675C324.604 143.972 325.287 142.948 325.329 141.733C325.415 139.899 324.05 137.831 321.683 136.168C319.018 134.334 315.628 133.311 312.706 133.311Z" fill="white"/>
<path d="M277.14 167.47L250.508 182.865C249.528 183.44 247.673 183.163 246.415 182.268L246.052 182.012C244.773 181.116 244.538 179.922 245.519 179.368L272.151 163.994C273.132 163.418 274.987 163.695 276.245 164.591L276.607 164.847C277.887 165.721 278.121 166.915 277.14 167.47Z" fill="#9B9B9B"/>
<path d="M249.186 183.206C248.269 183.206 247.203 182.886 246.372 182.31L246.009 182.054C245.263 181.542 244.836 180.881 244.858 180.284C244.879 179.879 245.092 179.559 245.476 179.325L272.108 163.951C273.11 163.375 274.965 163.631 276.245 164.548L276.607 164.804C277.353 165.316 277.78 165.977 277.759 166.574C277.737 166.979 277.524 167.299 277.14 167.533L277.119 167.491L277.14 167.533L250.508 182.907C250.167 183.099 249.698 183.206 249.186 183.206ZM273.473 163.717C272.982 163.717 272.513 163.802 272.172 164.015L245.54 179.389C245.178 179.602 244.964 179.901 244.964 180.284C244.943 180.839 245.348 181.478 246.073 181.99L246.436 182.246C247.694 183.142 249.527 183.397 250.487 182.843L277.119 167.469C277.481 167.256 277.695 166.958 277.695 166.595C277.716 166.041 277.311 165.401 276.586 164.889L276.223 164.633C275.413 164.036 274.368 163.717 273.473 163.717Z" fill="white"/>
<path d="M337.889 124.483L324.477 132.223C324.008 132.5 323.133 132.372 322.536 131.946L322.472 131.903C321.875 131.477 321.747 130.901 322.216 130.645L335.628 122.905C336.097 122.628 336.972 122.756 337.569 123.182L337.633 123.225C338.251 123.651 338.358 124.206 337.889 124.483Z" fill="#E5E5E5"/>
<path d="M323.858 132.415C323.41 132.415 322.899 132.266 322.515 131.989L322.451 131.946C322.088 131.69 321.875 131.37 321.896 131.093C321.896 130.901 322.003 130.73 322.195 130.624L335.607 122.884C336.097 122.607 336.993 122.734 337.59 123.161L337.654 123.204C338.016 123.459 338.23 123.779 338.208 124.056C338.208 124.248 338.102 124.419 337.91 124.526L324.498 132.266C324.327 132.372 324.114 132.415 323.858 132.415ZM336.268 122.798C336.033 122.798 335.82 122.841 335.671 122.926L322.259 130.667C322.088 130.773 322.003 130.901 321.982 131.072C321.96 131.328 322.174 131.626 322.493 131.861L322.557 131.903C323.155 132.33 324.007 132.436 324.455 132.18L337.867 124.44C338.038 124.334 338.123 124.206 338.144 124.035C338.166 123.779 337.952 123.481 337.633 123.246L337.569 123.204C337.185 122.948 336.673 122.798 336.268 122.798Z" fill="white"/>
<path d="M337.654 129.814L328.421 135.144C328.038 135.379 327.291 135.272 326.779 134.91L326.374 134.611C325.863 134.249 325.777 133.78 326.161 133.545L335.394 128.214C335.778 127.98 336.524 128.087 337.036 128.449L337.441 128.748C337.953 129.11 338.038 129.6 337.654 129.814Z" fill="#E5E5E5"/>
<path d="M327.888 135.315C327.526 135.315 327.078 135.187 326.758 134.952L326.353 134.654C326.054 134.441 325.862 134.163 325.884 133.929C325.884 133.758 325.99 133.63 326.14 133.524L335.372 128.193C335.777 127.959 336.524 128.065 337.057 128.428L337.462 128.726C337.76 128.939 337.952 129.217 337.931 129.451C337.931 129.622 337.824 129.75 337.675 129.856L328.442 135.187C328.293 135.272 328.101 135.315 327.888 135.315ZM335.927 128.15C335.735 128.15 335.564 128.193 335.415 128.257L326.182 133.588C326.033 133.673 325.969 133.78 325.969 133.929C325.969 134.142 326.118 134.398 326.395 134.59L326.801 134.888C327.291 135.23 328.016 135.336 328.4 135.123L337.632 129.792C337.782 129.707 337.846 129.6 337.846 129.451C337.846 129.238 337.696 128.982 337.419 128.79L337.014 128.492C336.694 128.278 336.268 128.15 335.927 128.15Z" fill="white"/>
<path d="M280.232 178.792L267.908 185.914C266.841 186.532 264.858 186.234 263.472 185.274C262.108 184.314 261.852 183.014 262.897 182.417L275.221 175.295C276.287 174.677 278.27 174.975 279.656 175.935C281.042 176.894 281.298 178.174 280.232 178.792Z" fill="#9B9B9B"/>
<path d="M266.479 186.255C265.498 186.255 264.346 185.914 263.451 185.295C262.641 184.741 262.193 184.016 262.214 183.397C262.236 182.971 262.47 182.63 262.875 182.374L275.2 175.252C276.266 174.634 278.27 174.911 279.656 175.892C280.466 176.446 280.914 177.171 280.893 177.79C280.872 178.216 280.637 178.557 280.232 178.813L267.907 185.935C267.545 186.169 267.033 186.255 266.479 186.255ZM276.671 174.996C276.138 174.996 275.647 175.103 275.264 175.316L262.939 182.438C262.534 182.672 262.321 183.014 262.3 183.397C262.278 184.016 262.726 184.698 263.515 185.253C264.88 186.212 266.863 186.489 267.907 185.892L280.232 178.77C280.637 178.536 280.85 178.195 280.872 177.811C280.893 177.193 280.445 176.51 279.656 175.956C278.782 175.337 277.652 174.996 276.671 174.996Z" fill="white"/>
<path d="M395.822 75.5263L369.19 90.8999C368.21 91.4756 366.354 91.1984 365.096 90.3029L364.734 90.047C363.455 89.1515 363.22 87.9574 364.201 87.403L390.833 72.0294C391.814 71.4536 393.669 71.7308 394.927 72.6264L395.289 72.8823C396.569 73.7778 396.803 74.9506 395.822 75.5263Z" fill="#9B9B9B"/>
<path d="M367.868 91.2409C366.951 91.2409 365.885 90.9211 365.053 90.3453L364.691 90.0895C363.945 89.5777 363.518 88.9167 363.54 88.3197C363.561 87.9146 363.774 87.5947 364.158 87.3602L390.79 71.9865C391.792 71.4108 393.647 71.6667 394.927 72.5836L395.289 72.8394C396.035 73.3512 396.462 74.0122 396.44 74.6092C396.419 75.0144 396.206 75.3342 395.822 75.5687L369.211 90.9424C368.849 91.1556 368.38 91.2409 367.868 91.2409ZM392.155 71.7733C391.664 71.7733 391.195 71.8586 390.854 72.0718L364.222 87.4455C363.859 87.6587 363.646 87.9572 363.646 88.3197C363.625 88.8741 364.03 89.5138 364.755 90.0255L365.117 90.2814C366.375 91.1769 368.209 91.4328 369.169 90.8784L395.801 75.5048C396.163 75.2915 396.376 74.993 396.376 74.6092C396.398 74.0548 395.993 73.4152 395.268 72.9034L394.905 72.6475C394.095 72.0718 393.05 71.7733 392.155 71.7733Z" fill="white"/>
<path d="M391.899 90.8999L379.574 98.0217C378.508 98.64 376.525 98.3415 375.139 97.382C373.775 96.4225 373.519 95.1218 374.564 94.5248L386.888 87.403C387.954 86.7846 389.937 87.0832 391.323 88.0427C392.709 89.0022 392.965 90.2816 391.899 90.8999Z" fill="#9B9B9B"/>
<path d="M378.146 98.3626C377.165 98.3626 376.013 98.0215 375.118 97.4031C374.308 96.8487 373.86 96.1238 373.881 95.5054C373.902 95.079 374.137 94.7378 374.542 94.4819L386.867 87.3602C387.933 86.7418 389.937 87.019 391.323 87.9998C392.133 88.5542 392.581 89.2792 392.56 89.8976C392.538 90.324 392.304 90.6652 391.899 90.921L379.574 98.0428C379.212 98.256 378.7 98.3626 378.146 98.3626ZM388.338 87.1043C387.805 87.1043 387.314 87.2109 386.931 87.4241L374.606 94.5459C374.201 94.7804 373.988 95.1216 373.966 95.5054C373.945 96.1238 374.393 96.8061 375.182 97.3605C376.546 98.32 378.529 98.5972 379.574 98.0002L391.899 90.8784C392.304 90.6439 392.517 90.3027 392.538 89.9189C392.56 89.3005 392.112 88.6182 391.323 88.0638C390.449 87.4241 389.319 87.1043 388.338 87.1043Z" fill="white"/>
<path d="M253.536 92.8829L246.329 97.0408L249.378 101.135L246.884 102.585L234.346 85.3986L236.542 84.1406L262.129 93.7571L259.634 95.2071L253.536 92.8829ZM249.954 91.4969L239.015 87.2964L244.495 94.6313L249.954 91.4969Z" fill="#9B9B9B"/>
<path d="M246.883 102.606L234.282 85.3985L236.52 84.0978H236.542L262.214 93.757L259.634 95.2496L253.536 92.9254L246.393 97.0407L249.442 101.135L246.883 102.606ZM234.41 85.4198L246.905 102.499L249.335 101.092L246.286 96.998L253.536 92.8188L259.634 95.1429L262.044 93.757L236.542 84.1618L234.41 85.4198ZM244.495 94.6952L244.474 94.6738L238.909 87.2109L250.039 91.4968L244.495 94.6952ZM239.143 87.3815L244.538 94.5885L249.89 91.4968L239.143 87.3815Z" fill="white"/>
<path d="M346.226 205.274L344.349 203.952L344.456 203.803L346.332 205.125L346.226 205.274ZM342.473 202.63L340.596 201.308L340.703 201.159L342.579 202.481L342.473 202.63ZM338.699 199.986L336.822 198.664L336.929 198.515L338.805 199.837L338.699 199.986ZM334.946 197.342L333.069 196.02L333.176 195.871L335.052 197.193L334.946 197.342ZM331.172 194.72L329.295 193.398L329.402 193.249L331.278 194.571L331.172 194.72ZM327.419 192.076L325.543 190.754L325.649 190.605L327.526 191.926L327.419 192.076ZM323.666 189.432L321.79 188.11L321.896 187.96L323.773 189.282L323.666 189.432ZM319.892 186.788L318.016 185.466L318.122 185.316L319.999 186.638L319.892 186.788ZM316.139 184.165L314.263 182.843L314.369 182.694L316.246 184.016L316.139 184.165ZM312.365 181.521L310.489 180.199L310.595 180.05L312.472 181.372L312.365 181.521ZM308.612 178.877L306.736 177.555L306.843 177.406L308.719 178.728L308.612 178.877ZM304.86 176.254L302.983 174.932L303.09 174.783L304.966 176.105L304.86 176.254ZM301.085 173.61L299.209 172.288L299.316 172.139L301.192 173.461L301.085 173.61ZM297.333 170.966L295.456 169.644L295.563 169.495L297.439 170.817L297.333 170.966ZM293.559 168.322L291.682 167L291.789 166.851L293.665 168.173L293.559 168.322ZM289.806 165.7L287.929 164.378L288.036 164.228L289.912 165.55L289.806 165.7ZM286.053 163.056L284.177 161.734L284.283 161.584L286.16 162.906L286.053 163.056ZM282.279 160.412L280.402 159.09L280.509 158.94L282.385 160.262L282.279 160.412ZM278.526 157.789L276.65 156.467L276.756 156.318L278.633 157.64L278.526 157.789Z" fill="#FC0048"/>
<path d="M284.582 223.356L284.496 223.207L286.479 222.055L286.565 222.205L284.582 223.356ZM288.569 221.053L288.484 220.904L290.467 219.753L290.552 219.902L288.569 221.053ZM292.556 218.75L292.471 218.601L294.454 217.45L294.539 217.599L292.556 218.75ZM296.522 216.469L296.437 216.32L298.42 215.168L298.505 215.317L296.522 216.469ZM300.51 214.166L300.424 214.017L302.407 212.865L302.493 213.015L300.51 214.166ZM304.476 211.863L304.39 211.714L306.374 210.563L306.459 210.712L304.476 211.863ZM308.463 209.56L308.378 209.411L310.361 208.26L310.446 208.409L308.463 209.56ZM312.45 207.279L312.365 207.13L314.348 205.978L314.433 206.127L312.45 207.279ZM316.416 204.976L316.331 204.827L318.314 203.675L318.399 203.825L316.416 204.976ZM320.404 202.673L320.319 202.524L322.302 201.372L322.387 201.522L320.404 202.673ZM324.37 200.392L324.285 200.242L326.268 199.091L326.353 199.24L324.37 200.392ZM328.357 198.089L328.272 197.939L330.255 196.788L330.34 196.937L328.357 198.089ZM332.345 195.786L332.259 195.637L334.242 194.485L334.328 194.634L332.345 195.786ZM336.311 193.483L336.225 193.334L338.208 192.182L338.294 192.332L336.311 193.483Z" fill="#FC0048"/>
<path d="M350.535 181.443L349.042 180.398L349.149 180.249L350.556 181.229L350.961 180.995L351.047 181.144L350.535 181.443ZM353.03 180.014L352.944 179.865L354.927 178.713L355.013 178.863L353.03 180.014ZM347.166 179.076L345.289 177.754L345.396 177.605L347.272 178.927L347.166 179.076ZM356.996 177.711L356.91 177.562L358.893 176.41L358.979 176.56L356.996 177.711ZM343.392 176.453L341.515 175.131L341.622 174.982L343.498 176.304L343.392 176.453ZM360.983 175.43L360.898 175.28L362.881 174.129L362.966 174.278L360.983 175.43ZM339.639 173.809L337.763 172.487L337.869 172.338L339.746 173.66L339.639 173.809ZM364.97 173.127L364.885 172.978L366.868 171.826L366.953 171.975L364.97 173.127ZM335.865 171.165L333.988 169.843L334.095 169.694L335.971 171.016L335.865 171.165ZM368.936 170.824L368.851 170.675L370.834 169.523L370.919 169.673L368.936 170.824ZM332.112 168.521L330.236 167.199L330.342 167.05L332.219 168.372L332.112 168.521ZM372.924 168.521L372.838 168.372L374.821 167.22L374.907 167.37L372.924 168.521ZM376.89 166.24L376.804 166.09L378.787 164.939L378.873 165.088L376.89 166.24ZM328.359 165.898L326.483 164.576L326.589 164.427L328.466 165.749L328.359 165.898ZM380.877 163.937L380.792 163.787L382.775 162.636L382.86 162.785L380.877 163.937ZM324.585 163.254L322.709 161.932L322.815 161.783L324.692 163.105L324.585 163.254ZM384.843 161.634L384.758 161.485L386.741 160.333L386.826 160.482L384.843 161.634ZM320.832 160.61L318.956 159.288L319.063 159.139L320.939 160.461L320.832 160.61ZM388.83 159.331L388.745 159.182L390.728 158.03L390.813 158.18L388.83 159.331ZM317.058 157.966L315.182 156.644L315.288 156.495L317.165 157.817L317.058 157.966ZM392.818 157.05L392.732 156.9L394.715 155.749L394.801 155.898L392.818 157.05ZM313.305 155.344L311.429 154.022L311.536 153.872L313.412 155.194L313.305 155.344ZM396.784 154.747L396.698 154.597L398.681 153.446L398.767 153.595L396.784 154.747ZM309.553 152.7L307.676 151.378L307.783 151.228L309.659 152.55L309.553 152.7ZM400.771 152.444L400.686 152.295L402.562 151.207L402.498 151.164L402.605 151.015L402.882 151.207L400.771 152.444ZM305.779 150.056L303.902 148.734L304.009 148.584L305.885 149.906L305.779 150.056ZM400.622 149.864L398.745 148.542L398.852 148.393L400.728 149.715L400.622 149.864ZM302.026 147.433L300.149 146.111L300.256 145.962L302.132 147.284L302.026 147.433ZM396.869 147.22L394.993 145.898L395.099 145.748L396.976 147.07L396.869 147.22ZM298.252 144.789L296.375 143.467L296.482 143.318L298.358 144.64L298.252 144.789ZM393.095 144.576L391.218 143.254L391.325 143.104L393.202 144.426L393.095 144.576ZM294.499 142.145L292.622 140.823L292.729 140.674L294.605 141.996L294.499 142.145ZM389.342 141.953L387.466 140.631L387.572 140.482L389.449 141.804L389.342 141.953ZM290.746 139.501L288.87 138.179L288.976 138.03L290.853 139.352L290.746 139.501ZM385.568 139.309L383.692 137.987L383.798 137.838L385.675 139.16L385.568 139.309ZM286.972 136.878L285.096 135.556L285.202 135.407L287.079 136.729L286.972 136.878ZM381.815 136.665L379.939 135.343L380.045 135.194L381.922 136.516L381.815 136.665ZM283.219 134.234L281.343 132.912L281.449 132.763L283.326 134.085L283.219 134.234ZM378.062 134.021L376.186 132.699L376.293 132.55L378.169 133.872L378.062 134.021ZM279.445 131.59L277.569 130.268L277.675 130.119L279.552 131.441L279.445 131.59ZM374.288 131.398L372.412 130.076L372.519 129.927L374.395 131.249L374.288 131.398ZM275.692 128.946L273.816 127.624L273.922 127.475L275.799 128.797L275.692 128.946ZM370.535 128.754L368.659 127.432L368.766 127.283L370.642 128.605L370.535 128.754ZM271.939 126.324L270.063 125.002L270.17 124.852L272.046 126.174L271.939 126.324ZM366.761 126.11L364.885 124.788L364.992 124.639L366.868 125.961L366.761 126.11ZM268.165 123.68L266.289 122.358L266.396 122.208L268.272 123.53L268.165 123.68ZM363.009 123.488L361.132 122.166L361.239 122.016L363.115 123.338L363.009 123.488ZM264.413 121.036L262.536 119.714L262.643 119.564L264.519 120.886L264.413 121.036ZM359.256 120.844L357.379 119.522L357.486 119.372L359.362 120.694L359.256 120.844ZM260.638 118.413L258.762 117.091L258.869 116.942L260.745 118.264L260.638 118.413ZM355.482 118.2L353.605 116.878L353.712 116.728L355.588 118.05L355.482 118.2ZM256.886 115.769L255.009 114.447L255.116 114.298L256.992 115.62L256.886 115.769ZM351.729 115.556L349.853 114.234L349.959 114.084L351.836 115.406L351.729 115.556ZM253.133 113.125L251.256 111.803L251.363 111.654L253.24 112.976L253.133 113.125ZM347.955 112.933L346.078 111.611L346.185 111.462L348.061 112.784L347.955 112.933ZM249.359 110.481L247.482 109.159L247.589 109.01L249.465 110.332L249.359 110.481ZM344.202 110.289L342.326 108.967L342.432 108.818L344.309 110.14L344.202 110.289ZM245.606 107.858L243.73 106.536L243.836 106.387L245.713 107.709L245.606 107.858ZM340.449 107.645L338.573 106.323L338.679 106.174L340.556 107.496L340.449 107.645ZM241.832 105.214L239.955 103.892L240.062 103.743L241.938 105.065L241.832 105.214ZM336.675 105.001L334.799 103.679L334.905 103.53L336.782 104.852L336.675 105.001ZM238.079 102.57L236.203 101.248L236.309 101.099L238.186 102.421L238.079 102.57ZM332.922 102.378L331.046 101.056L331.153 100.907L333.029 102.229L332.922 102.378ZM234.326 99.9261L232.45 98.6041L232.557 98.4548L234.433 99.7768L234.326 99.9261ZM329.148 99.7342L327.272 98.4122L327.378 98.2629L329.255 99.5849L329.148 99.7342ZM230.552 97.3034L228.676 95.9814L228.782 95.8321L230.659 97.1541L230.552 97.3034ZM325.395 97.0902L323.519 95.7682L323.626 95.6189L325.502 96.9409L325.395 97.0902ZM226.799 94.6594L224.923 93.3374L225.03 93.1881L226.906 94.5101L226.799 94.6594ZM321.621 94.4675L319.745 93.1455L319.852 92.9962L321.728 94.3182L321.621 94.4675ZM223.025 92.0154L222.833 91.8874L224.859 90.7147L224.944 90.864L223.089 91.9301L223.025 92.0154ZM317.869 91.8235L315.992 90.5015L316.099 90.3522L317.975 91.6742L317.869 91.8235ZM226.927 89.7125L226.842 89.5633L228.825 88.4118L228.91 88.5611L226.927 89.7125ZM314.116 89.1795L312.239 87.8575L312.346 87.7082L314.222 89.0302L314.116 89.1795ZM230.915 87.431L230.829 87.2817L232.812 86.1303L232.898 86.2796L230.915 87.431ZM310.342 86.5354L308.465 85.2134L308.572 85.0642L310.448 86.3862L310.342 86.5354ZM234.881 85.1282L234.795 84.9789L236.778 83.8275L236.864 83.9767L234.881 85.1282ZM306.589 83.9128L304.712 82.5908L304.819 82.4415L306.695 83.7635L306.589 83.9128ZM238.868 82.8253L238.783 82.6761L240.766 81.5246L240.851 81.6739L238.868 82.8253ZM302.815 81.2688L300.938 79.9467L301.045 79.7975L302.921 81.1195L302.815 81.2688ZM242.855 80.5225L242.77 80.3732L244.753 79.2218L244.838 79.371L242.855 80.5225ZM299.062 78.6247L297.186 77.3027L297.292 77.1535L299.169 78.4755L299.062 78.6247ZM246.821 78.2409L246.736 78.0917L248.719 76.9403L248.804 77.0895L246.821 78.2409ZM295.309 75.9807L293.433 74.6587L293.539 74.5095L295.416 75.8315L295.309 75.9807ZM250.809 75.9381L250.723 75.7888L252.706 74.6374L252.792 74.7867L250.809 75.9381ZM254.775 73.6352L254.689 73.486L256.672 72.3346L256.758 72.4838L254.775 73.6352ZM291.535 73.358L289.659 72.036L289.765 71.8868L291.642 73.2088L291.535 73.358ZM258.762 71.3537L258.677 71.2045L260.66 70.053L260.745 70.2023L258.762 71.3537ZM287.782 70.714L285.906 69.392L286.012 69.2428L287.889 70.5648L287.782 70.714ZM262.749 69.0509L262.664 68.9016L264.647 67.7502L264.732 67.8994L262.749 69.0509ZM284.008 68.07L282.132 66.748L282.238 66.5988L284.115 67.9208L284.008 68.07ZM266.715 66.748L266.63 66.5988L268.613 65.4473L268.698 65.5966L266.715 66.748ZM280.255 65.4473L278.379 64.1253L278.486 63.9761L280.362 65.2981L280.255 65.4473ZM270.703 64.4452L270.617 64.2959L272.6 63.1445L272.686 63.2937L270.703 64.4452ZM276.503 62.8033L275.181 61.8651L274.69 62.1423L274.605 61.9931L275.202 61.6519L276.609 62.6541L276.503 62.8033Z" fill="#FC0048"/>
<path d="M249.847 113.523C249.485 113.736 248.802 113.63 248.333 113.31L241.425 108.448C240.956 108.128 240.87 107.681 241.233 107.467C241.595 107.254 242.278 107.361 242.747 107.681L249.655 112.542C250.124 112.862 250.21 113.31 249.847 113.523Z" fill="#5DADEC"/>
<path d="M248.866 108.555C249.335 108.875 249.421 109.323 249.058 109.536L243.706 112.628C243.344 112.841 242.661 112.734 242.192 112.414C241.723 112.094 241.638 111.647 242 111.433L247.352 108.342C247.715 108.128 248.397 108.235 248.866 108.555Z" fill="#5DADEC"/>
<path d="M189.227 154.91C188.864 155.124 188.182 155.017 187.713 154.697L180.783 149.836C180.314 149.516 180.229 149.068 180.591 148.855C180.954 148.641 181.636 148.748 182.105 149.068L189.014 153.93C189.483 154.249 189.589 154.697 189.227 154.91Z" fill="#9266CC"/>
<path d="M20.5459 210.464C20.1834 210.677 19.5011 210.571 19.032 210.251L12.1021 205.389C11.633 205.069 11.5477 204.622 11.9102 204.408C12.2727 204.195 12.955 204.302 13.4241 204.622L20.3326 209.483C20.8017 209.803 20.9084 210.251 20.5459 210.464Z" fill="#77B255"/>
<path d="M236.126 266.475C235.764 266.688 235.081 266.581 234.612 266.261L227.682 261.4C227.213 261.08 227.128 260.632 227.49 260.419C227.853 260.206 228.535 260.312 229.004 260.632L235.913 265.494C236.382 265.814 236.489 266.261 236.126 266.475Z" fill="#FFAC33"/>
<path d="M188.246 149.942C188.715 150.262 188.8 150.71 188.438 150.923L183.086 154.015C182.723 154.228 182.041 154.121 181.572 153.802C181.103 153.482 181.018 153.034 181.38 152.821L186.732 149.729C187.095 149.516 187.777 149.622 188.246 149.942Z" fill="#9266CC"/>
<path d="M19.565 205.496C20.0341 205.816 20.1194 206.263 19.7569 206.477L14.4049 209.568C14.0425 209.782 13.3601 209.675 12.891 209.355C12.4219 209.035 12.3366 208.588 12.6991 208.374L18.0511 205.283C18.4136 205.069 19.0959 205.176 19.565 205.496Z" fill="#77B255"/>
<path d="M235.145 261.506C235.614 261.826 235.7 262.274 235.337 262.487L229.985 265.579C229.623 265.792 228.94 265.686 228.471 265.366C228.002 265.046 227.917 264.598 228.279 264.385L233.631 261.293C233.994 261.08 234.676 261.187 235.145 261.506Z" fill="#FFAC33"/>
<path d="M287.887 56.8901C287.418 57.146 286.565 57.0393 285.968 56.6129L277.204 50.472C276.607 50.0455 276.5 49.4911 276.948 49.2353C277.417 48.9794 278.27 49.086 278.867 49.5124L287.631 55.6534C288.249 56.0585 288.356 56.6342 287.887 56.8901Z" fill="#FF0000"/>
<path d="M286.65 50.6212C287.247 51.0477 287.354 51.6021 286.906 51.8579L280.147 55.76C279.678 56.0159 278.825 55.9092 278.228 55.4828C277.631 55.0563 277.524 54.5019 277.972 54.2461L284.731 50.344C285.2 50.0882 286.053 50.2161 286.65 50.6212Z" fill="#FF0000"/>
<path d="M196.413 154.527H196.242V152.245H196.413V154.527ZM196.413 149.942H196.242V147.661H196.413V149.942ZM196.413 145.358H196.242V143.055H196.413V145.358ZM196.413 140.752H196.242V138.449H196.413V140.752ZM196.413 136.168H196.242V133.865H196.413V136.168ZM196.413 131.562H196.242V129.259H196.413V131.562ZM196.413 126.978H196.242V124.675H196.413V126.978ZM196.413 122.393H196.242V120.09H196.413V122.393ZM196.413 117.788H196.242V115.485H196.413V117.788ZM196.413 113.203H196.242V110.9H196.413V113.203ZM196.413 108.598H196.242V106.295H196.413V108.598ZM196.413 104.013H196.242V101.71H196.413V104.013Z" fill="#FC0048"/>
<path d="M43.2867 208.781H43.1161V206.499H43.2867V208.781ZM43.2867 204.196H43.1161V201.893H43.2867V204.196ZM43.2867 199.612H43.1161V197.309H43.2867V199.612ZM43.2867 195.006H43.1161V192.703H43.2867V195.006ZM43.2867 190.422H43.1161V188.119H43.2867V190.422ZM43.2867 185.816H43.1161V183.513H43.2867V185.816ZM43.2867 181.232H43.1161V178.929H43.2867V181.232ZM43.2867 176.626H43.1161V174.323H43.2867V176.626ZM43.2867 172.042H43.1161V169.739H43.2867V172.042ZM43.2867 167.436H43.1161V165.154H43.2867V167.436ZM43.2867 162.852H43.1161V160.549H43.2867V162.852ZM43.2867 158.246H43.1161V155.943H43.2867V158.246Z" fill="#FC0048"/>
<path d="M132.339 272.85H132.169V270.569H132.339V272.85ZM132.339 268.266H132.169V265.963H132.339V268.266ZM132.339 263.681H132.169V261.379H132.339V263.681ZM132.339 259.076H132.169V256.773H132.339V259.076ZM132.339 254.491H132.169V252.189H132.339V254.491ZM132.339 249.886H132.169V247.583H132.339V249.886ZM132.339 245.301H132.169V242.998H132.339V245.301ZM132.339 240.696H132.169V238.393H132.339V240.696ZM132.339 236.111H132.169V233.808H132.339V236.111ZM132.339 231.506H132.169V229.224H132.339V231.506ZM132.339 226.921H132.169V224.618H132.339V226.921ZM132.339 222.316H132.169V220.013H132.339V222.316Z" fill="#FC0048"/>
<path d="M292.4 344.702L239.221 307.387L239.264 307.323L292.443 344.638L292.4 344.702Z" fill="#FF0049"/>
<path d="M239.115 307.749L238.774 307.046L239.562 307.11L239.115 307.749Z" fill="#FF0049"/>
<path d="M292.102 344.936L292.891 345L292.549 344.275L292.102 344.936Z" fill="#FF0049"/>
<path d="M238.283 306.747L216.662 291.565L216.705 291.501L238.326 306.683L238.283 306.747Z" fill="#FF0049"/>
<path d="M216.555 291.928L216.214 291.224L217.003 291.288L216.555 291.928Z" fill="#FF0049"/>
<path d="M237.985 306.96L238.774 307.046L238.432 306.321L237.985 306.96Z" fill="#FF0049"/>
<path d="M319.239 305.866L290.39 322.519L302.629 338.874L292.629 344.652L242.35 275.95L251.113 270.876L353.59 309.427L343.59 315.205L319.239 305.866ZM304.889 300.365L261.092 283.541L283.076 312.966L304.889 300.365Z" fill="#F7F7F7" stroke="white" stroke-width="0.7983" stroke-miterlimit="10"/>
<path d="M306.126 313.585L277.639 330.046L287.341 347.722L276.914 353.735L236.721 278.786L245.676 273.626L337.982 318.489L327.896 324.31L306.126 313.585ZM292.714 306.953L254.845 288.296L271.69 319.107L292.714 306.953Z" stroke="#9B9B9B" stroke-width="0.3901" stroke-miterlimit="10"/>
<path d="M186.271 308.126L186.165 307.956L188.425 306.655L188.531 306.826L186.271 308.126ZM190.813 305.504L190.706 305.333L192.966 304.032L193.073 304.203L190.813 305.504ZM195.355 302.881L195.248 302.71L197.508 301.41L197.615 301.58L195.355 302.881ZM199.875 300.258L199.768 300.088L202.029 298.787L202.135 298.957L199.875 300.258ZM204.417 297.657L204.31 297.486L206.57 296.186L206.677 296.356L204.417 297.657ZM208.958 295.034L208.852 294.864L211.112 293.563L211.219 293.733L208.958 295.034ZM213.5 292.411L213.394 292.241L215.654 290.94L215.76 291.111L213.5 292.411ZM218.021 289.789L217.914 289.618L220.174 288.317L220.281 288.488L218.021 289.789ZM222.562 287.166L222.456 286.995L224.716 285.695L224.823 285.865L222.562 287.166ZM227.104 284.565L226.997 284.394L229.258 283.093L229.364 283.264L227.104 284.565ZM231.624 281.942L231.518 281.771L233.778 280.471L233.885 280.641L231.624 281.942ZM236.166 279.319L236.06 279.149L238.32 277.848L238.426 278.019L236.166 279.319ZM240.708 276.697L240.601 276.526L242.861 275.225L242.968 275.396L240.708 276.697ZM245.25 274.074L245.143 273.903L247.403 272.603L247.51 272.773L245.25 274.074ZM249.77 271.451L249.663 271.281L251.924 269.98L252.03 270.151L249.77 271.451ZM254.312 268.85L254.205 268.679L256.465 267.379L256.572 267.549L254.312 268.85ZM258.853 266.227L258.747 266.057L261.007 264.756L261.114 264.927L258.853 266.227ZM263.395 263.604L263.289 263.434L265.549 262.133L265.655 262.304L263.395 263.604ZM267.916 260.982L267.809 260.811L270.069 259.511L270.176 259.681L267.916 260.982ZM272.457 258.359L272.351 258.189L274.611 256.888L274.718 257.058L272.457 258.359ZM276.999 255.758L276.892 255.587L279.153 254.287L279.259 254.457L276.999 255.758ZM281.519 253.135L281.413 252.964L283.673 251.664L283.78 251.834L281.519 253.135ZM286.061 250.512L285.955 250.342L288.215 249.041L288.321 249.212L286.061 250.512ZM290.603 247.89L290.496 247.719L292.757 246.418L292.863 246.589L290.603 247.89ZM295.145 245.267L295.038 245.096L297.298 243.796L297.405 243.966L295.145 245.267ZM299.665 242.644L299.558 242.474L301.819 241.173L301.925 241.344L299.665 242.644ZM304.207 240.043L304.1 239.872L306.062 238.742L306.168 238.913L304.207 240.043Z" fill="#FC0048"/>
<path d="M208.83 323.948L208.724 323.777L210.984 322.476L211.091 322.647L208.83 323.948ZM213.372 321.325L213.266 321.154L215.526 319.854L215.632 320.024L213.372 321.325ZM217.893 318.702L217.786 318.532L220.046 317.231L220.153 317.402L217.893 318.702ZM222.434 316.08L222.328 315.909L224.588 314.608L224.695 314.779L222.434 316.08ZM226.976 313.478L226.869 313.308L229.13 312.007L229.236 312.178L226.976 313.478ZM231.518 310.856L231.411 310.685L233.671 309.384L233.778 309.555L231.518 310.856ZM236.038 308.233L235.932 308.062L238.192 306.762L238.298 306.932L236.038 308.233ZM240.58 305.61L240.473 305.44L242.734 304.139L242.84 304.309L240.58 305.61ZM245.122 302.987L245.015 302.817L247.275 301.516L247.382 301.687L245.122 302.987ZM249.663 300.386L249.557 300.216L251.817 298.915L251.924 299.085L249.663 300.386ZM254.184 297.763L254.077 297.593L256.337 296.292L256.444 296.463L254.184 297.763ZM258.726 295.141L258.619 294.97L260.879 293.669L260.986 293.84L258.726 295.141ZM263.267 292.518L263.161 292.347L265.421 291.047L265.527 291.217L263.267 292.518ZM267.788 289.895L267.681 289.725L269.941 288.424L270.048 288.595L267.788 289.895ZM272.329 287.273L272.223 287.102L274.483 285.801L274.59 285.972L272.329 287.273ZM276.871 284.671L276.765 284.501L279.025 283.2L279.131 283.371L276.871 284.671ZM281.413 282.049L281.306 281.878L283.566 280.577L283.673 280.748L281.413 282.049ZM285.933 279.426L285.827 279.255L288.087 277.955L288.193 278.125L285.933 279.426ZM290.475 276.803L290.368 276.633L292.629 275.332L292.735 275.503L290.475 276.803ZM295.017 274.181L294.91 274.01L297.17 272.709L297.277 272.88L295.017 274.181ZM299.558 271.558L299.452 271.387L301.712 270.087L301.819 270.257L299.558 271.558ZM304.079 268.956L303.972 268.786L306.232 267.485L306.339 267.656L304.079 268.956ZM308.621 266.334L308.514 266.163L310.774 264.863L310.881 265.033L308.621 266.334ZM313.162 263.711L313.056 263.541L315.316 262.24L315.423 262.41L313.162 263.711ZM317.704 261.088L317.597 260.918L319.858 259.617L319.964 259.788L317.704 261.088ZM322.224 258.466L322.118 258.295L324.378 256.994L324.485 257.165L322.224 258.466ZM326.766 255.864L326.66 255.694L328.621 254.564L328.728 254.734L326.766 255.864Z" fill="#FC0048"/>
<path d="M262.948 361.902L262.841 361.731L265.101 360.431L265.208 360.601L262.948 361.902ZM267.489 359.279L267.383 359.109L269.643 357.808L269.749 357.979L267.489 359.279ZM272.031 356.678L271.924 356.507L274.185 355.207L274.291 355.377L272.031 356.678ZM276.551 354.055L276.445 353.885L278.705 352.584L278.812 352.755L276.551 354.055ZM281.093 351.433L280.987 351.262L283.247 349.961L283.353 350.132L281.093 351.433ZM285.635 348.81L285.528 348.639L287.788 347.339L287.895 347.509L285.635 348.81ZM290.177 346.187L290.07 346.017L292.33 344.716L292.437 344.887L290.177 346.187ZM294.697 343.564L294.59 343.394L296.851 342.093L296.957 342.264L294.697 343.564ZM299.239 340.963L299.132 340.793L301.392 339.492L301.499 339.662L299.239 340.963ZM303.78 338.34L303.674 338.17L305.934 336.869L306.041 337.04L303.78 338.34ZM308.322 335.718L308.216 335.547L310.476 334.246L310.582 334.417L308.322 335.718ZM312.843 333.095L312.736 332.924L314.996 331.624L315.103 331.794L312.843 333.095ZM317.384 330.472L317.278 330.302L319.538 329.001L319.645 329.172L317.384 330.472ZM321.926 327.871L321.819 327.7L324.08 326.4L324.186 326.57L321.926 327.871ZM326.446 325.248L326.34 325.078L328.6 323.777L328.707 323.948L326.446 325.248ZM330.988 322.626L330.882 322.455L333.142 321.154L333.248 321.325L330.988 322.626ZM335.53 320.003L335.423 319.832L337.684 318.532L337.79 318.702L335.53 320.003ZM340.072 317.38L339.965 317.21L342.225 315.909L342.332 316.08L340.072 317.38ZM344.592 314.758L344.485 314.587L346.746 313.286L346.852 313.457L344.592 314.758ZM349.134 312.156L349.027 311.986L351.287 310.685L351.394 310.856L349.134 312.156ZM353.676 309.534L353.569 309.363L355.829 308.062L355.936 308.233L353.676 309.534ZM358.217 306.911L358.111 306.74L360.371 305.44L360.477 305.61L358.217 306.911ZM362.738 304.288L362.631 304.118L364.891 302.817L364.998 302.987L362.738 304.288ZM367.279 301.665L367.173 301.495L369.433 300.194L369.54 300.365L367.279 301.665ZM371.821 299.043L371.715 298.872L373.975 297.572L374.081 297.742L371.821 299.043ZM376.342 296.441L376.235 296.271L378.495 294.97L378.602 295.141L376.342 296.441ZM380.883 293.819L380.777 293.648L382.738 292.518L382.845 292.689L380.883 293.819Z" fill="#FC0048"/>
<path d="M317.043 255.502H316.873V253.22H317.043V255.502ZM317.043 250.918H316.873V248.615H317.043V250.918ZM317.043 246.333H316.873V244.03H317.043V246.333ZM317.043 241.727H316.873V239.425H317.043V241.727ZM317.043 237.143H316.873V234.84H317.043V237.143ZM317.043 232.537H316.873V230.235H317.043V232.537ZM317.043 227.953H316.873V225.65H317.043V227.953ZM317.043 223.347H316.873V221.044H317.043V223.347ZM317.043 218.763H316.873V216.46H317.043V218.763ZM317.043 214.157H316.873V211.876H317.043V214.157ZM317.043 209.573H316.873V207.27H317.043V209.573ZM317.043 204.989H316.873V202.686H317.043V204.989Z" fill="#FC0048"/>
<path d="M327.385 325.419H327.214V323.137H327.385V325.419ZM327.385 320.835H327.214V318.532H327.385V320.835ZM327.385 316.25H327.214V313.947H327.385V316.25ZM327.385 311.644H327.214V309.342H327.385V311.644ZM327.385 307.06H327.214V304.757H327.385V307.06ZM327.385 302.454H327.214V300.152H327.385V302.454ZM327.385 297.87H327.214V295.567H327.385V297.87ZM327.385 293.264H327.214V290.961H327.385V293.264ZM327.385 288.68H327.214V286.377H327.385V288.68ZM327.385 284.074H327.214V281.771H327.385V284.074ZM327.385 279.49H327.214V277.187H327.385V279.49ZM327.385 274.884H327.214V272.581H327.385V274.884Z" fill="#FC0048"/>
<path d="M370.082 299.848H369.911V297.567H370.082V299.848ZM370.082 295.264H369.911V292.961H370.082V295.264ZM370.082 290.679H369.911V288.377H370.082V290.679ZM370.082 286.074H369.911V283.771H370.082V286.074ZM370.082 281.489H369.911V279.186H370.082V281.489ZM370.082 276.884H369.911V274.581H370.082V276.884ZM370.082 272.299H369.911V269.996H370.082V272.299ZM370.082 267.694H369.911V265.391H370.082V267.694ZM370.082 263.109H369.911V260.806H370.082V263.109ZM370.082 258.503H369.911V256.201H370.082V258.503ZM370.082 253.919H369.911V251.616H370.082V253.919ZM370.082 249.313H369.911V247.011H370.082V249.313Z" fill="#FC0048"/>
<path d="M317.043 247.506L369.859 284.543L360.904 289.703L356.746 286.782C356.746 291.239 354.358 295.205 349.134 298.211C337.662 304.821 316.105 301.474 300.71 290.684C285.315 279.895 282.159 265.907 293.631 259.276C298.834 256.27 305.294 255.118 312.246 255.566L308.088 252.645L317.043 247.506ZM344.038 277.912L324.932 264.521C316.275 262.325 309.985 263.37 305.486 265.993C298.023 270.3 300.305 278.914 309.729 285.524C319.175 292.156 332.395 294.416 339.858 290.109C344.4 287.486 346.618 283.605 344.038 277.912Z" fill="#E5E5E5"/>
<path d="M317.043 226.332L369.859 263.37L360.904 268.53L356.746 265.609C356.746 270.065 354.358 274.031 349.134 277.038C337.662 283.648 316.105 280.3 300.71 269.511C285.315 258.722 282.159 244.734 293.631 238.103C298.834 235.096 305.294 233.945 312.246 234.392L308.088 231.471L317.043 226.332ZM344.038 256.717L324.932 243.327C316.275 241.152 309.985 242.175 305.486 244.798C298.023 249.105 300.305 257.719 309.729 264.329C319.175 270.961 332.395 273.221 339.858 268.914C344.4 266.291 346.618 262.41 344.038 256.717Z" fill="#C1C1C1"/>
<path d="M176.383 55.7183C175.999 55.776 175.807 55.6414 175.961 55.3916L181.305 47.1262C181.458 46.8955 181.785 46.9339 182.054 47.2223L191.512 57.2945C191.781 57.5828 191.628 57.679 191.205 57.5252L183.169 54.7572L176.383 55.7183ZM178.652 54.2575L182.862 53.6616L188.225 55.5069L182.074 48.9522L178.652 54.2575Z" fill="#9B9B9B"/>
<path d="M215.041 44.3967C212.235 42.4168 211.716 39.8026 213.888 38.5532C216.06 37.3038 220.097 37.8804 222.923 39.8603L215.041 44.3967ZM215.695 39.1875L218.194 40.9367L220.482 39.6104C218.828 38.8992 216.983 38.7454 215.695 39.1875ZM217.214 41.5134L214.715 39.7642C213.888 40.5331 213.965 41.7056 214.907 42.8397L217.214 41.5134ZM213.254 38.0919C211.62 39.0338 208.602 38.5917 206.487 37.1116C204.373 35.6315 203.988 33.6709 205.622 32.729C207.256 31.7871 210.274 32.2292 212.389 33.7093C214.503 35.1894 214.888 37.15 213.254 38.0919ZM211.966 37.2077C213.061 36.5734 212.792 35.2663 211.389 34.286C209.986 33.3056 207.967 33.0173 206.872 33.6324C205.776 34.2475 206.045 35.5738 207.448 36.5541C208.871 37.5537 210.889 37.842 211.966 37.2077Z" fill="#9B9B9B"/>
<path d="M103.123 104.907L102.508 101.812C102.162 100.102 99.7593 98.4101 97.1065 98.0257C94.4537 97.6412 92.5891 98.7177 92.9351 100.428C93.2811 102.139 95.684 103.831 98.3368 104.215L103.123 104.907ZM104.104 102.043L104.93 106.176L98.5483 105.253C95.0304 104.753 91.8009 102.485 91.3395 100.198C90.8782 97.9103 93.3772 96.4687 96.9143 96.9877C100.432 97.5067 103.662 99.7556 104.104 102.043ZM101.912 108.482L108.794 104.503L110.063 105.388L103.181 109.367L101.912 108.482Z" fill="#9B9B9B"/>
<path d="M122.501 81.1296C125.211 79.5535 130.267 80.2839 133.785 82.7443C137.302 85.2047 137.956 88.4724 135.226 90.0486C132.516 91.6248 127.46 90.8944 123.942 88.434C120.424 85.9736 119.771 82.7058 122.501 81.1296ZM123.769 82.0331C121.597 83.2825 122.116 85.8967 124.923 87.8765C127.729 89.8564 131.785 90.433 133.958 89.1836C136.13 87.9342 135.611 85.32 132.804 83.3402C129.978 81.3603 125.942 80.7644 123.769 82.0331ZM129.421 87.9919L129.901 88.8184C130.036 89.0683 129.882 89.2605 129.536 89.2797C129.19 89.2989 128.806 89.1067 128.671 88.8568L128.306 88.2417C128.517 87.9726 128.883 87.8765 129.421 87.9919ZM127.326 83.763L131.189 84.9548L132.247 84.3397C132.477 84.2051 132.881 84.2628 133.169 84.4743C133.458 84.6665 133.515 84.9356 133.285 85.0701L132.708 85.4161L133.996 85.8006C134.361 85.9159 134.611 86.185 134.534 86.3964C134.477 86.5887 134.15 86.6848 133.804 86.5694L128.96 85.0893C127.864 84.7626 127.345 84.0898 127.326 83.763ZM125.519 82.3214C125.865 82.3022 126.249 82.4944 126.384 82.7443L128.537 86.4733L129.786 85.7429C130.19 85.5122 131.036 85.8198 131.286 86.2042L127.614 88.3379C127.383 88.4724 126.98 88.4147 126.691 88.2033C126.403 87.9919 126.345 87.742 126.576 87.6074L127.614 87.0115L125.98 84.1667L124.634 83.763C124.269 83.6477 124.019 83.3786 124.096 83.1672C124.154 82.9749 124.481 82.8788 124.827 82.9942L125.403 83.1672L125.173 82.7827C125.019 82.5328 125.192 82.3406 125.519 82.3214Z" fill="#9B9B9B"/>
<path d="M18.8293 149.925L11.9473 153.904L16.4071 157.037L23.2891 153.058L18.8293 149.925ZM17.5605 149.041C15.0999 147.311 11.5629 146.811 9.65976 147.906C7.75665 149.002 8.21801 151.289 10.6786 153.019L17.5605 149.041ZM6.87238 149.483C6.85316 148.464 7.37219 147.58 8.39102 147.003C9.42908 146.407 10.8708 146.176 12.4087 146.292L12.1972 145.235L13.7928 145.465L14.0042 146.522C15.6382 146.868 17.253 147.56 18.5409 148.464L24.9038 152.923C25.2498 153.173 25.3267 153.5 25.0576 153.654L17.1953 158.19C16.9262 158.344 16.4264 158.267 16.0611 158.036L9.6982 153.577C8.35257 152.635 7.4683 151.539 7.08384 150.501L5.44986 150.271L5.2384 149.233L6.87238 149.483ZM11.3706 150.982C11.1015 151.136 10.6017 151.059 10.2365 150.828C9.89044 150.578 9.81354 150.251 10.0827 150.098C10.3518 149.944 10.8516 150.021 11.2168 150.251C11.5629 150.501 11.6398 150.828 11.3706 150.982ZM14.3118 149.29C14.0427 149.444 13.5429 149.367 13.1776 149.137C12.8316 148.887 12.7547 148.56 13.0238 148.406C13.293 148.252 13.7928 148.329 14.158 148.56C14.5232 148.791 14.5809 149.117 14.3118 149.29Z" fill="#9B9B9B"/>
<path d="M41.3398 129.607L43.3006 128.473C43.5698 128.319 44.0696 128.396 44.4348 128.627L54.6231 135.777C54.9692 136.027 55.0461 136.354 54.7769 136.508L45.915 141.621C45.6459 141.775 45.1461 141.698 44.7808 141.467L34.5925 134.317C34.2465 134.067 34.1696 133.74 34.4387 133.586L36.3995 132.452L35.1307 131.568L36.1111 130.991L37.3799 131.875L40.3402 130.165L39.0715 129.28L40.0519 128.704L41.3398 129.607ZM41.6282 131.068L38.6678 132.779L39.9366 133.663L38.9562 134.24L37.6874 133.355L36.2072 134.201L38.7447 135.989L46.607 131.452L44.0696 129.665L42.5894 130.511L43.8581 131.395L42.8777 131.971L41.6282 131.068ZM47.9142 132.337L40.0519 136.873L45.1461 140.448L53.0084 135.912L47.9142 132.337Z" fill="#9B9B9B"/>
<path d="M152.777 70.1732L159.179 66.4826C159.448 66.3288 159.947 66.4057 160.313 66.6363L166.676 71.0958C167.022 71.3457 167.099 71.6725 166.829 71.8262L158.967 76.3626C158.698 76.5164 158.198 76.4395 157.833 76.2088L151.47 71.7494C151.124 71.4995 151.047 71.1727 151.316 71.0189L151.816 70.7306L151.182 70.2885C148.721 68.5585 148.26 66.2711 150.163 65.1755C151.47 64.4258 153.623 64.4066 155.718 65.1178L155.411 66.0212C153.239 65.2716 151.124 65.6752 150.682 66.9247C150.394 67.7897 150.97 68.8661 152.162 69.7118L152.777 70.1732ZM153.066 71.634L158.16 75.2093L165.042 71.2304L159.947 67.6551L153.066 71.634ZM157.429 71.5379L159.39 70.4038L160.659 71.288L158.698 72.4221L157.429 71.5379Z" fill="#9B9B9B"/>
<path d="M242.435 24.502L242.934 24.2137L239.743 21.9839L240.724 21.4073L243.915 23.637L244.415 23.3487C243.723 22.772 243.377 22.1569 243.184 21.3881C243.165 21.292 243.05 20.773 243.011 20.6961C242.377 18.9469 239.782 17.3899 237.187 17.1977C234.591 17.0055 232.996 18.2741 233.63 20.0041C234.169 21.4842 236.149 22.8681 238.398 23.3487C238.513 23.3679 239.34 23.5025 239.474 23.5217C240.685 23.7331 241.608 24.0022 242.435 24.502ZM243.723 25.3862L244.357 25.8283L246.318 24.6942L245.683 24.2521L243.723 25.3862ZM238.455 24.3675C234.899 23.6178 231.977 21.2151 231.919 18.9853C231.862 16.7748 234.688 15.5831 238.244 16.3519C241.262 16.9863 243.896 18.8508 244.607 20.8114C244.799 21.3304 244.78 22.3492 245.722 23.0027L247.317 24.1176C248.029 24.6173 248.144 25.2709 247.606 25.5784L245.645 26.7125C245.107 27.0201 244.088 26.8855 243.396 26.3858L241.8 25.2709C240.839 24.6173 239.263 24.5212 238.455 24.3675Z" fill="#9B9B9B"/>
<path d="M69.9441 117.171L73.8848 114.902L78.5176 124.437L72.7891 120.419L69.3481 122.399L64.2347 113.153L69.9441 117.171ZM70.2324 118.632L67.8295 116.94L69.8095 120.496L72.5008 118.939L75.2881 120.9L73.3274 116.844L70.2324 118.632Z" fill="#9B9B9B"/>
<path d="M159.302 314.664L132.542 295.533L132.606 295.49L132.307 295.273L132.243 295.316L105.483 276.185C98.9158 271.49 90.6426 268.142 82.4121 266.859L81.9217 266.511L87.4229 263.272L87.1244 263.055L81.7724 266.207L80.2372 258.424L79.8747 258.381L81.4099 266.163L74.8852 261.489L74.6506 261.62L81.3886 266.424L81.0048 266.642C72.9662 265.576 65.7165 266.62 60.7483 269.533L19.0411 294.077C14.0729 297.012 11.7914 301.577 12.6443 306.86L12.2605 307.099L5.52258 302.294L5.28801 302.425L11.8128 307.099L0 305.338L0.0426349 305.577L11.8554 307.338L6.84457 310.295L7.14309 310.512L12.3245 307.468L12.8149 307.816C13.9877 313.273 18.3375 318.925 24.8835 323.621L78.6806 362.1C85.248 366.796 93.5212 370.144 101.752 371.426L102.242 371.774L97.0608 374.818L97.3593 375.035L102.37 372.078L103.905 379.861L104.268 379.905L102.733 372.122L109.257 376.796L109.492 376.665L102.754 371.861L103.138 371.622C111.176 372.687 118.426 371.644 123.394 368.731L165.101 344.187C170.07 341.252 172.351 336.686 171.498 331.382L171.882 331.165L178.62 335.969L178.854 335.839L172.33 331.165L184.143 332.925L184.1 332.686L172.287 330.925L177.703 327.73L177.405 327.512L171.839 330.795L171.349 330.447C170.198 325.012 165.869 319.36 159.302 314.664ZM159.067 314.795C165.443 319.36 169.686 324.86 170.944 330.165L145.591 312.034L150.794 308.969L150.495 308.751L145.293 311.816L127.04 298.751L132.307 295.642L159.067 314.795ZM124.823 323.882L124.46 323.838C124.375 323.447 124.29 323.034 124.162 322.643L125.42 323.534L124.823 323.882ZM125.718 323.751L126.209 324.099L125.356 323.969L125.718 323.751ZM95.7388 341.013L94.6726 340.252C95.1631 340.339 95.6535 340.426 96.1652 340.491L96.2079 340.73L95.7388 341.013ZM96.2718 341.078L96.3358 341.447L96.0159 341.23L96.2718 341.078ZM59.3836 314.403L59.7461 314.447C59.8101 314.773 59.8953 315.099 59.9806 315.425L58.9145 314.664L59.3836 314.403ZM58.6373 314.469L58.3175 314.251L58.8719 314.338L58.6373 314.469ZM88.617 297.207L89.875 298.099C89.278 297.99 88.6596 297.881 88.0626 297.794L88.0199 297.555L88.617 297.207ZM87.956 297.229L87.8494 296.664L88.3398 297.012L87.956 297.229ZM106.869 310.273L106.336 310.577C101.453 307.121 95.3336 304.664 89.2354 303.729L88.1052 298.034C88.8302 298.142 89.5765 298.273 90.3015 298.425L106.869 310.273ZM90.8985 298.555C98.3828 300.099 105.696 303.251 111.645 307.468L107.104 310.142L90.8985 298.555ZM89.278 303.968C95.2697 304.881 101.304 307.295 106.102 310.708L92.2205 318.882L89.278 303.968ZM91.8367 318.817L73.8191 305.925C77.5292 303.795 82.9452 303.077 88.9155 303.925L91.8367 318.817ZM91.6235 318.947L69.0641 315.599C68.3391 311.664 69.9597 308.251 73.6058 306.055L91.6235 318.947ZM91.6661 319.186L77.7851 327.36C73.0301 323.925 69.917 319.795 69.0854 315.838L91.6661 319.186ZM91.9646 319.404L94.9072 334.295C88.9155 333.382 82.8812 330.969 78.0836 327.556L91.9646 319.404ZM92.3271 319.447L110.409 332.382C106.699 334.512 101.283 335.23 95.3123 334.382L92.3271 319.447ZM92.5404 319.317L115.1 322.664C115.867 326.599 114.247 330.056 110.622 332.252L92.5404 319.317ZM92.4977 319.077L106.379 310.903C111.134 314.338 114.247 318.469 115.078 322.425L92.4977 319.077ZM87.7428 297.99L88.8728 303.686C84.1605 303.012 79.7681 303.295 76.2498 304.49L87.3803 297.925L87.7428 297.99ZM73.5205 305.708L66.6333 300.773C71.6228 297.881 78.8512 296.838 86.8472 297.86L73.5205 305.708ZM73.286 305.838L59.9593 313.686C59.1704 308.425 61.4519 303.86 66.3774 300.925L73.286 305.838ZM71.175 307.49C68.9788 309.642 68.1259 312.469 68.7016 315.556L60.0659 314.273L60.0233 314.034L71.175 307.49ZM60.1086 314.512L68.7443 315.795C69.5759 319.817 72.7529 324.012 77.5718 327.491L77.1667 327.73L60.4284 315.751C60.3218 315.36 60.2152 314.925 60.1086 314.512ZM76.9535 327.86L72.2838 330.599C66.2922 326.295 62.1342 321.164 60.5564 316.121L76.9535 327.86ZM77.2307 328.078L93.6278 339.817C86.0369 338.295 78.574 335.121 72.561 330.839L77.2307 328.078ZM77.4652 327.947L77.8704 327.708C82.7533 331.165 88.8729 333.621 94.9712 334.556L96.1012 340.252C95.4829 340.165 94.8432 340.056 94.2249 339.926L77.4652 327.947ZM96.4851 340.317L95.3549 334.621C100.046 335.295 104.46 335.013 107.978 333.817L96.8475 340.382L96.4851 340.317ZM110.686 332.578L117.573 337.513C112.584 340.404 105.355 341.447 97.3593 340.426L110.686 332.578ZM110.92 332.447L124.247 324.599C125.036 329.86 122.733 334.426 117.829 337.36L110.92 332.447ZM113.053 330.817C115.249 328.665 116.102 325.838 115.526 322.751L124.162 324.034L124.205 324.273L113.053 330.817ZM124.098 323.773L115.462 322.491C114.631 318.469 111.454 314.273 106.635 310.795L107.168 310.49L123.714 322.317C123.863 322.817 123.991 323.295 124.098 323.773ZM107.402 310.36L111.944 307.686C117.85 311.925 121.966 316.969 123.607 321.947L107.402 310.36ZM111.88 307.338C105.76 302.99 98.1695 299.751 90.4507 298.229L88.8515 297.077L100.878 289.99C108.788 292.686 116.23 296.468 122.584 301.012L111.88 307.338ZM88.553 296.881L87.7641 296.316L85.7811 286.294C90.664 287.033 95.5895 288.229 100.451 289.859L88.553 296.881ZM87.3589 296.012L72.625 285.468C76.7189 285.338 81.0261 285.577 85.4186 286.229L87.3589 296.012ZM87.4229 296.36L87.6362 297.403L87.1884 297.664C78.9365 296.534 71.4736 297.577 66.3348 300.555L52.4111 290.599C57.6138 287.555 64.4371 285.794 72.2412 285.49L87.4229 296.36ZM66.1003 300.707C61.0255 303.729 58.7226 308.447 59.6395 313.882L59.1917 314.143L57.891 313.947L42.4321 302.903C43.6901 297.947 47.0378 293.773 52.1552 290.751L66.1003 300.707ZM57.3793 313.882L42.2828 311.642C41.7071 308.686 41.7498 305.838 42.3894 303.164L57.3793 313.882ZM57.8057 314.186L58.4028 314.621L46.3555 321.708C44.3298 318.425 42.9652 315.121 42.3042 311.903L57.8057 314.186ZM58.7013 314.816L60.0873 315.816C61.6225 321.012 65.8657 326.317 72.0493 330.752L61.3453 337.056C54.9911 332.512 49.9163 327.338 46.5474 321.969L58.7013 314.816ZM72.3478 330.969C78.5527 335.382 86.2928 338.643 94.0969 340.143L95.5042 341.143L83.3503 348.295C75.4396 345.6 67.998 341.817 61.6438 337.273L72.3478 330.969ZM95.8027 341.36L96.3998 341.795L98.4254 352.013C93.5425 351.274 88.617 350.078 83.7554 348.448L95.8027 341.36ZM96.8262 342.078L111.816 352.795C107.658 352.948 103.266 352.708 98.7879 352.056L96.8262 342.078ZM96.7622 341.752L96.5917 340.904L97.0394 340.643C105.291 341.773 112.754 340.73 117.872 337.752L131.795 347.708C126.657 350.708 119.897 352.469 112.2 352.817L96.7622 341.752ZM118.106 337.6C123.181 334.578 125.484 329.86 124.567 324.425L125.015 324.164L126.614 324.404L141.796 335.252C140.559 340.252 137.211 344.491 132.03 347.556L118.106 337.6ZM127.147 324.469L141.945 326.665C142.499 329.556 142.478 332.36 141.881 334.991L127.147 324.469ZM126.721 324.164L125.932 323.599L137.83 316.599C139.855 319.882 141.22 323.186 141.881 326.404L126.721 324.164ZM125.654 323.404L124.055 322.273C122.456 317.143 118.256 311.925 112.157 307.555L122.861 301.251C129.215 305.795 134.269 310.969 137.659 316.338L125.654 323.404ZM123.096 301.099L126.827 298.903L145.079 311.947L137.915 316.164C134.525 310.816 129.429 305.642 123.096 301.099ZM122.797 300.881C116.443 296.338 109.001 292.555 101.112 289.838L108.276 285.62L126.529 298.664L122.797 300.881ZM100.707 289.707C95.7601 288.033 90.7279 286.794 85.7384 286.055L81.9856 267.033H82.007C82.1136 267.055 82.2202 267.076 82.3481 267.098L107.999 285.425L100.707 289.707ZM81.6018 266.989L85.376 286.012C80.8769 285.359 76.4844 285.099 72.2838 285.251L62.2835 278.098L81.2393 266.946L81.6018 266.989ZM71.9 285.251C64.1172 285.577 57.3153 287.359 52.1126 290.381L47.251 286.903L62.049 278.185L71.9 285.251ZM46.9738 286.729L40.3425 281.99L55.1404 273.272L61.7717 278.011L46.9738 286.729ZM46.7393 286.859L32.0693 295.49L25.4379 290.751L40.1079 282.12L46.7393 286.859ZM47.0378 287.077L51.8994 290.555C46.7819 293.577 43.4343 297.751 42.1336 302.686L32.3891 295.707L47.0378 287.077ZM42.0483 302.925C41.366 305.642 41.3233 308.577 41.899 311.599L13.0921 307.316L13.0495 307.077L32.1332 295.838L42.0483 302.925ZM13.1348 307.555L41.9417 311.816C42.6027 315.099 44.01 318.49 46.0996 321.838L38.8286 326.121L13.1774 307.773C13.1774 307.708 13.1561 307.642 13.1348 307.555ZM46.2915 322.121C49.7031 327.491 54.7779 332.643 61.1108 337.186L57.3793 339.382L39.1271 326.338L46.2915 322.121ZM61.4093 337.404C67.7634 341.947 75.205 345.73 83.0944 348.448L75.93 352.665L57.6778 339.6L61.4093 337.404ZM83.4995 348.578C88.4464 350.252 93.4785 351.491 98.468 352.23L102.242 371.252H102.221C102.114 371.231 102.008 371.209 101.88 371.187L76.2285 352.861L83.4995 348.578ZM102.605 371.318L98.8306 352.295C103.415 352.969 107.893 353.209 112.136 353.056L122.051 360.143L102.967 371.383L102.605 371.318ZM112.541 353.035C120.238 352.665 126.955 350.904 132.094 347.904L136.955 351.382L122.285 360.013L112.541 353.035ZM137.254 351.578L143.885 356.317L129.215 364.948L122.584 360.209L137.254 351.578ZM137.467 351.448L152.265 342.73L158.897 347.469L144.099 356.187L137.467 351.448ZM137.19 351.23L132.328 347.752C137.489 344.687 140.858 340.469 142.137 335.469L151.967 342.513L137.19 351.23ZM142.201 335.23C142.841 332.534 142.883 329.686 142.307 326.708L171.114 330.991L171.157 331.23L152.201 342.382L142.201 335.23ZM171.072 330.73L142.265 326.469C141.604 323.186 140.197 319.795 138.107 316.447L145.378 312.164L171.029 330.512L171.072 330.73ZM105.291 276.337L132.051 295.468L126.785 298.577L108.532 285.512L113.735 282.446L113.437 282.229L108.234 285.294L82.9025 267.185C90.8772 268.489 98.8945 271.772 105.291 276.337ZM80.7063 266.859L61.985 277.881L55.3536 273.142L61.0681 269.772C65.9084 266.946 72.9235 265.902 80.7063 266.859ZM19.361 294.316L25.2247 290.859L31.8561 295.599L13.0068 306.686C12.2819 301.599 14.542 297.164 19.361 294.316ZM78.9365 361.97L25.1394 323.491C18.764 318.925 14.5207 313.425 13.2627 308.121L38.594 326.251L33.4126 329.317L33.7111 329.534L38.8925 326.469L57.1447 339.513L51.942 342.578L52.2405 342.795L57.4433 339.73L75.6955 352.795L70.514 355.861L70.8126 356.078L75.994 353.013L101.325 371.144C93.3293 369.796 85.312 366.535 78.9365 361.97ZM103.522 371.448L122.371 360.361L129.002 365.1L123.16 368.535C118.298 371.361 111.283 372.405 103.522 371.448ZM164.867 343.969L159.131 347.339L152.5 342.6L171.221 331.578C171.946 336.708 169.664 341.121 164.867 343.969Z" fill="#FFBDBD"/>
<path d="M137.489 305.642C139.045 306.773 139.322 308.251 138.128 308.969L98.3402 332.404C97.1248 333.121 94.886 332.795 93.3081 331.665L90.4295 329.599L130.196 306.186L96.7623 282.272L99.6622 307.382L51.8568 302.012L47.571 298.947C45.9931 297.816 45.6946 296.316 46.9313 295.599L86.6981 272.185C87.9134 271.468 90.195 271.794 91.7729 272.924L137.489 305.642ZM55.8015 297.816L91.9647 301.903L89.2141 278.142L55.8015 297.816ZM74.5868 324.034L92.2633 313.643L97.9777 317.73L80.3013 328.121L74.5868 324.034ZM60.3006 313.816L71.3457 307.316L77.0602 311.403L66.0151 317.903L60.3006 313.816Z" fill="#9B9B9B"/>
<path d="M96.7196 332.817C95.5895 332.817 94.2889 332.425 93.2867 331.708L90.3655 329.621L90.4081 329.599L130.111 306.229L96.7836 282.403L99.6835 307.49L51.8354 302.034L47.5496 298.968C46.6327 298.316 46.0996 297.49 46.1423 296.751C46.1636 296.251 46.4408 295.838 46.9099 295.555L86.6767 272.142C87.9134 271.424 90.1949 271.75 91.7728 272.881L137.51 305.599C138.427 306.251 138.939 307.055 138.917 307.795C138.896 308.273 138.64 308.686 138.171 308.968L98.3828 332.404C97.9137 332.686 97.3593 332.817 96.7196 332.817ZM90.4934 329.599L93.3293 331.621C94.8859 332.73 97.1248 333.056 98.3188 332.36L138.107 308.925C138.555 308.664 138.811 308.273 138.832 307.795C138.853 307.099 138.342 306.295 137.467 305.664L91.7301 272.946C90.1736 271.837 87.9134 271.489 86.698 272.207L46.9312 295.642C46.4621 295.903 46.2062 296.294 46.2062 296.773C46.1849 297.468 46.6966 298.273 47.5922 298.925L51.8781 301.99L99.6408 307.381L96.741 282.229L96.8049 282.272L130.282 306.208L130.239 306.229L90.4934 329.599ZM80.3012 328.165L74.5227 324.034L74.5654 324.012L92.2632 313.599L92.2845 313.621L98.0416 317.751L97.999 317.773L80.3012 328.165ZM74.6507 324.034L80.3012 328.078L97.9137 317.708L92.2632 313.664L74.6507 324.034ZM66.015 317.947L60.2366 313.816L60.2792 313.795L71.3457 307.273L71.367 307.295L77.1241 311.425L77.0815 311.447L66.015 317.947ZM60.3645 313.816L66.015 317.86L76.9962 311.403L71.3457 307.36L60.3645 313.816ZM92.0073 301.947L55.6735 297.86L55.7588 297.794L89.2354 278.098V278.164L92.0073 301.947ZM55.908 297.794L91.922 301.86L89.1927 278.207L55.908 297.794Z" fill="white"/>
</g>
<defs>
<clipPath id="clip0">
<rect width="375" height="384" fill="white"/>
</clipPath>
</defs>
</svg>
