<svg width="32" height="32" viewBox="0 0 32 32" fill="none" xmlns="http://www.w3.org/2000/svg">
<path d="M27.6741 8.10277C26.8375 7.51808 25.5765 7.63021 24.8254 8.25049L25.6869 6.99837C26.3801 6.00966 26.1318 4.93997 25.1422 4.24582C24.1526 3.55435 21.3485 5.41341 21.3485 5.41341C22.048 4.41491 21.9171 3.14943 20.9186 2.44906C19.9201 1.75136 18.5425 1.99253 17.8431 2.9928L8.57002 16.0925L9.75184 27.5503L19.6149 23.9533L28.2178 11.1979C28.9235 10.1932 28.6797 8.80759 27.6741 8.10277Z" fill="#90603E"/>
<path d="M29.6016 15.3904C29.6016 15.3904 30.609 13.922 29.1398 12.9155C27.6723 11.909 26.6658 13.3765 26.6658 13.3765L21.9928 20.1915C21.8317 19.9228 21.6555 19.6576 21.4588 19.3959L27.9446 9.93869C27.9446 9.93869 28.9511 8.4712 27.4827 7.4647C26.0152 6.45819 25.0087 7.92568 25.0087 7.92568L18.9083 16.8223C18.6814 16.6372 18.4491 16.4512 18.2097 16.2687L25.2819 5.9536C25.2819 5.9536 26.2884 4.48611 24.8201 3.4796C23.3526 2.4731 22.3461 3.94058 22.3461 3.94058L15.2738 14.2539C15.014 14.0947 14.7568 13.9567 14.4987 13.8108L21.1091 4.17108C21.1091 4.17108 22.1156 2.70359 20.6481 1.69708C19.1806 0.690572 18.1741 2.15806 18.1741 2.15806L11.1846 12.3513L10.122 13.9015C14.5254 16.9219 14.9445 22.6041 12.4287 26.2733C11.9259 27.0075 11.1917 26.5047 11.1917 26.5047C14.2112 22.1004 13.2893 17.1515 8.88504 14.132L10.1834 7.63378C10.1834 7.63378 10.6685 5.92156 8.95712 5.43566C7.2449 4.95065 6.759 6.66287 6.759 6.66287L5.25947 11.1161C4.665 12.8817 4.03226 14.6411 3.19485 16.3052C0.830309 21.004 2.24262 26.8437 6.70116 29.9024C11.5646 33.237 18.2133 31.9973 21.5487 27.1348L29.6016 15.3904Z" fill="#AF7E57"/>
<path d="M21.3209 28.4777C24.8806 28.4777 28.4777 24.8806 28.4777 21.3209C28.4777 20.8287 28.8381 20.4309 29.3302 20.4309C29.8223 20.4309 30.2575 20.8287 30.2575 21.3209C30.2575 26.6604 26.6604 30.2575 21.3209 30.2575C20.8287 30.2575 20.431 29.8223 20.431 29.3302C20.431 28.8381 20.8287 28.4777 21.3209 28.4777Z" fill="#5DADEC"/>
<path d="M25.7705 30.2201C28.4403 30.2201 30.2201 28.4403 30.2201 25.7705C30.2201 25.2784 30.6179 24.8806 31.1101 24.8806C31.6022 24.8806 32 25.2784 32 25.7705C32 29.3302 29.3302 32 25.7705 32C25.2784 32 24.8806 31.6022 24.8806 31.1101C24.8806 30.6179 25.2784 30.2201 25.7705 30.2201ZM10.6418 1.74246C11.133 1.74246 11.5317 2.14115 11.5317 2.63239C11.5317 3.12363 11.133 3.52232 10.6418 3.52232C7.08205 3.52232 3.52234 6.71626 3.52234 10.6417C3.52234 11.133 3.12365 11.5317 2.63241 11.5317C2.14117 11.5317 1.74249 11.133 1.74249 10.6417C1.74249 5.73467 5.30219 1.74246 10.6418 1.74246Z" fill="#5DADEC"/>
<path d="M6.1921 0C6.68334 0 7.08203 0.36131 7.08203 0.85255C7.08203 1.34379 6.68334 1.77985 6.1921 1.77985C3.52232 1.77985 1.77985 3.75994 1.77985 6.19211C1.77985 6.68335 1.34467 7.08204 0.852543 7.08204C0.360414 7.08204 -7.15256e-06 6.68335 -7.15256e-06 6.19211C-7.15256e-06 2.77746 2.6324 0 6.1921 0Z" fill="#5DADEC"/>
</svg>
