<svg width="21" height="21" viewBox="0 0 21 21" fill="none" xmlns="http://www.w3.org/2000/svg">
<path d="M14.0201 18.399C16.32 18.399 18.644 16.0749 18.644 13.7751C18.644 13.4571 18.8769 13.2001 19.1948 13.2001C19.5128 13.2001 19.7939 13.4571 19.7939 13.7751C19.7939 17.2249 17.4699 19.5489 14.0201 19.5489C13.7022 19.5489 13.4452 19.2677 13.4452 18.9498C13.4452 18.6318 13.7022 18.399 14.0201 18.399Z" fill="#5DADEC"/>
<path d="M16.8952 19.5247C18.6201 19.5247 19.77 18.3748 19.77 16.6499C19.77 16.3319 20.027 16.0749 20.345 16.0749C20.6629 16.0749 20.9199 16.3319 20.9199 16.6499C20.9199 18.9498 19.195 20.6747 16.8952 20.6747C16.5772 20.6747 16.3202 20.4177 16.3202 20.0997C16.3202 19.7817 16.5772 19.5247 16.8952 19.5247ZM7.12072 1.12579C7.4381 1.12579 7.69568 1.38338 7.69568 1.70076C7.69568 2.01814 7.4381 2.27573 7.12072 2.27573C4.82085 2.27573 2.52098 4.33928 2.52098 6.87546C2.52098 7.19284 2.2634 7.45043 1.94601 7.45043C1.62863 7.45043 1.37105 7.19284 1.37105 6.87546C1.37105 3.7051 3.67091 1.12579 7.12072 1.12579Z" fill="#5DADEC"/>
<path d="M4.24583 0C4.56322 0 4.8208 0.233437 4.8208 0.550818C4.8208 0.8682 4.56322 1.14993 4.24583 1.14993C2.52093 1.14993 1.39515 2.42923 1.39515 4.00062C1.39515 4.318 1.11399 4.57559 0.796033 4.57559C0.478076 4.57559 0.245214 4.318 0.245214 4.00062C0.245214 1.79447 1.94597 0 4.24583 0Z" fill="#5DADEC"/>
</svg>
