<svg width="32" height="32" viewBox="0 0 32 32" fill="none" xmlns="http://www.w3.org/2000/svg">
<path d="M16 24C13.8783 24 11.8435 23.1572 10.3432 21.6569C8.8429 20.1566 8.00004 18.1218 8.00004 16C8.00004 13.8783 8.8429 11.8435 10.3432 10.3432C11.8435 8.8429 13.8783 8.00004 16 8.00004C18.1218 8.00004 20.1566 8.8429 21.6569 10.3432C23.1572 11.8435 24 13.8783 24 16C24 18.1218 23.1572 20.1566 21.6569 21.6569C20.1566 23.1572 18.1218 24 16 24ZM16 21.3334C17.4145 21.3334 18.7711 20.7715 19.7713 19.7713C20.7715 18.7711 21.3334 17.4145 21.3334 16C21.3334 14.5856 20.7715 13.229 19.7713 12.2288C18.7711 11.2286 17.4145 10.6667 16 10.6667C14.5856 10.6667 13.229 11.2286 12.2288 12.2288C11.2286 13.229 10.6667 14.5856 10.6667 16C10.6667 17.4145 11.2286 18.7711 12.2288 19.7713C13.229 20.7715 14.5856 21.3334 16 21.3334ZM14.6667 1.33337H17.3334V5.33337H14.6667V1.33337ZM14.6667 26.6667H17.3334V30.6667H14.6667V26.6667ZM4.68671 6.57204L6.57204 4.68671L9.40004 7.51471L7.51471 9.40004L4.68671 6.57337V6.57204ZM22.6 24.4854L24.4854 22.6L27.3134 25.428L25.428 27.3134L22.6 24.4854ZM25.428 4.68537L27.3134 6.57204L24.4854 9.40004L22.6 7.51471L25.428 4.68671V4.68537ZM7.51471 22.6L9.40004 24.4854L6.57204 27.3134L4.68671 25.428L7.51471 22.6ZM30.6667 14.6667V17.3334H26.6667V14.6667H30.6667ZM5.33337 14.6667V17.3334H1.33337V14.6667H5.33337Z" fill="white"/>
</svg>
