<svg width="32" height="32" viewBox="0 0 32 32" fill="none" xmlns="http://www.w3.org/2000/svg">
<g clip-path="url(#clip0)">
<path d="M20.4 6.40001C19.3866 6.39984 18.4137 6.79751 17.6905 7.50743C16.9674 8.21736 16.5518 9.1828 16.5333 10.196L16.496 12.296C16.4938 12.4088 16.4678 12.5198 16.4197 12.6218C16.3716 12.7238 16.3025 12.8144 16.2168 12.8878C16.1312 12.9613 16.0311 13.0157 15.9229 13.0477C15.8148 13.0797 15.7011 13.0884 15.5893 13.0733L13.508 12.7907C10.7693 12.4173 8.14532 11.156 5.62799 9.05868C4.83065 13.472 6.38799 16.5293 10.1387 18.888L12.468 20.352C12.5787 20.4216 12.6706 20.5172 12.7358 20.6305C12.801 20.7438 12.8374 20.8713 12.8418 21.002C12.8463 21.1326 12.8187 21.2624 12.7614 21.3799C12.7042 21.4974 12.619 21.5991 12.5133 21.676L10.3907 23.2267C11.6533 23.3053 12.852 23.2493 13.8467 23.052C20.1373 21.796 24.32 17.0627 24.32 9.25468C24.32 8.61734 22.9707 6.40001 20.4 6.40001ZM13.8667 10.1467C13.8899 8.86141 14.2918 7.61157 15.0221 6.55364C15.7523 5.49571 16.7784 4.6767 17.9719 4.19917C19.1654 3.72163 20.4732 3.60678 21.7316 3.86901C22.9901 4.13123 24.1432 4.75887 25.0467 5.67334C25.9947 5.66668 26.8013 5.90668 28.6053 4.81334C28.1587 7.00001 27.9387 7.94934 26.9867 9.25468C26.9867 19.444 20.724 24.3987 14.3693 25.6667C10.012 26.536 3.67599 25.108 1.85999 23.212C2.78532 23.14 6.54532 22.736 8.71865 21.1453C6.87999 19.9333 -0.438681 15.6267 4.37065 4.04801C6.62799 6.68401 8.91732 8.47868 11.2373 9.43068C12.7813 10.064 13.16 10.0507 13.868 10.148L13.8667 10.1467Z" fill="white"/>
</g>
<defs>
<clipPath id="clip0">
<rect width="32" height="32" fill="white"/>
</clipPath>
</defs>
</svg>
