<svg width="30" height="30" viewBox="0 0 30 30" fill="none" xmlns="http://www.w3.org/2000/svg">
<path d="M11.3333 8C11.3328 9.86676 11.8223 11.7009 12.7527 13.3193C13.6832 14.9376 15.022 16.2835 16.6356 17.2223C18.2491 18.1611 20.0807 18.66 21.9474 18.6692C23.8142 18.6784 25.6506 18.1975 27.2733 17.2747C26.632 24.04 20.9333 29.3333 14 29.3333C6.63596 29.3333 0.666626 23.364 0.666626 16C0.666626 9.06667 5.95996 3.368 12.7253 2.72667C11.81 4.33325 11.3302 6.151 11.3333 8ZM3.33329 16C3.33329 18.829 4.4571 21.5421 6.45749 23.5425C8.45788 25.5429 11.171 26.6667 14 26.6667C15.8846 26.6666 17.7356 26.1675 19.3649 25.2202C20.9941 24.2729 22.3435 22.9111 23.276 21.2733C22.8546 21.3133 22.428 21.3333 22 21.3333C14.636 21.3333 8.66663 15.364 8.66663 8C8.66663 7.572 8.68663 7.14667 8.72663 6.724C7.08882 7.65643 5.72706 9.00585 4.77977 10.6351C3.83247 12.2644 3.33341 14.1154 3.33329 16ZM22.2186 3.05467L23.3333 3.33333V4.66667L22.2186 4.94533C21.7498 5.06258 21.3217 5.305 20.98 5.64671C20.6383 5.98841 20.3959 6.41653 20.2786 6.88533L20 8H18.6666L18.388 6.88533C18.2707 6.41653 18.0283 5.98841 17.6866 5.64671C17.3449 5.305 16.9168 5.06258 16.448 4.94533L15.3333 4.66667V3.33333L16.448 3.05467C16.9165 2.93721 17.3444 2.69469 17.6858 2.353C18.0273 2.01132 18.2695 1.5833 18.3866 1.11467L18.6666 0H20L20.2786 1.11467C20.3959 1.58347 20.6383 2.01159 20.98 2.3533C21.3217 2.695 21.7498 2.93742 22.2186 3.05467ZM28.8853 9.72133L30 10V11.3333L28.8853 11.612C28.4165 11.7292 27.9884 11.9717 27.6467 12.3134C27.305 12.6551 27.0625 13.0832 26.9453 13.552L26.6666 14.6667H25.3333L25.0546 13.552C24.9374 13.0832 24.695 12.6551 24.3533 12.3134C24.0116 11.9717 23.5834 11.7292 23.1146 11.612L22 11.3333V10L23.1146 9.72133C23.5834 9.60409 24.0116 9.36166 24.3533 9.01996C24.695 8.67826 24.9374 8.25013 25.0546 7.78133L25.3333 6.66667H26.6666L26.9453 7.78133C27.0625 8.25013 27.305 8.67826 27.6467 9.01996C27.9884 9.36166 28.4165 9.60409 28.8853 9.72133Z" fill="black"/>
</svg>
